<svg xmlns="http://www.w3.org/2000/svg" width="838" height="167" viewBox="0 0 838 167" fill="none">
  <path d="M-0.000781059 135.2C-0.000781059 95.8402 63.9992 80.8002 63.9992 64.1602C63.9992 61.1202 62.2392 59.8402 60.1592 59.8402C52.4792 59.8402 47.6792 76.6402 38.5592 76.6402C34.0792 76.6402 33.2792 72.3202 34.8792 68.1602C44.6392 42.4002 50.5592 26.5602 60.6392 0.000179291H62.2392L113.439 135.2C120.479 152.8 125.599 161.6 135.359 161.6V163.2H82.8792V161.6C105.439 161.6 104.639 148.64 98.5592 132.48L78.7192 80.1602C79.3592 85.2802 79.6792 91.6802 79.6792 99.3602C79.6792 138.24 60.9592 166.4 29.1192 166.4C10.5592 166.4 -0.000781059 151.84 -0.000781059 135.2ZM13.5992 132.16C13.5992 147.2 23.0392 158.72 38.7192 158.72C65.4392 158.72 78.0792 125.92 78.0792 99.6802C78.0792 87.8402 77.5992 79.0402 74.7192 69.6002L55.3592 18.5602L36.9592 67.5202C34.8792 73.1202 36.1592 75.0402 38.7192 75.0402C46.0792 75.0402 51.9992 58.2402 60.4792 58.2402C63.5192 58.2402 65.7592 60.3202 65.7592 64.4802C65.7592 85.9202 13.5992 92.6402 13.5992 132.16ZM127.343 4.80018V3.2002H170.543V4.80018C156.783 4.80018 155.823 16.1602 155.823 47.6802V118.72C155.823 149.76 173.423 164.8 196.143 164.8C218.863 164.8 235.823 149.6 235.823 118.72V47.6802C235.823 16.1602 234.863 4.80018 221.103 4.80018V3.2002H264.303V4.80018C250.543 4.80018 249.583 16.1602 249.583 47.6802V118.72C249.583 150.72 225.583 166.4 196.143 166.4C166.703 166.4 142.063 151.04 142.063 118.72V47.6802C142.063 16.1602 141.103 4.80018 127.343 4.80018ZM273.905 163.2V161.6C287.665 161.6 288.625 150.24 288.625 118.72V47.6802C288.625 16.1602 287.665 4.80018 273.905 4.80018V3.2002H293.105C310.705 3.2002 322.065 0.000179291 340.625 0.000179291C374.705 0.000179291 393.745 18.8802 393.745 44.9602C393.745 66.8802 375.825 86.7202 347.985 86.7202C332.945 86.7202 322.705 76.4802 315.985 76.4802C314.065 76.4802 311.345 76.9602 311.345 80.6402C311.345 91.0402 345.105 93.2802 358.065 113.44C370.705 133.12 385.585 161.6 403.825 161.6V163.2H379.345C371.985 163.2 367.505 153.12 342.225 115.2C326.705 91.8402 309.745 91.2002 309.745 80.3202C309.745 76.4802 312.465 74.8802 315.345 74.8802C324.785 74.8802 332.145 84.0002 347.025 84.0002C367.025 84.0002 379.985 64.3202 379.985 45.1202C379.985 18.5602 361.265 2.24019 331.505 2.24019C319.665 2.24019 311.985 3.84019 302.225 7.36019V118.72C302.225 150.24 303.185 161.6 316.945 161.6V163.2H273.905ZM481.468 166.4C441.628 166.4 410.268 131.2 410.268 83.2002C410.268 35.2002 441.628 0.000179291 481.468 0.000179291C521.308 0.000179291 552.668 35.2002 552.668 83.2002C552.668 131.2 521.308 166.4 481.468 166.4ZM481.468 1.92019C448.348 1.92019 424.668 36.4802 424.668 83.2002C424.668 129.92 450.588 164.48 481.468 164.48C512.348 164.48 538.268 129.92 538.268 83.2002C538.268 36.4802 514.588 1.92019 481.468 1.92019ZM567.03 163.2V161.6C580.79 161.6 581.75 150.24 581.75 118.72V47.6802C581.75 16.1602 580.79 4.80018 567.03 4.80018V3.2002H586.23C603.83 3.2002 615.19 0.000179291 633.75 0.000179291C667.83 0.000179291 686.87 18.8802 686.87 44.9602C686.87 66.8802 668.95 86.7202 641.11 86.7202C626.07 86.7202 615.83 76.4802 609.11 76.4802C607.19 76.4802 604.47 76.9602 604.47 80.6402C604.47 91.0402 638.23 93.2802 651.19 113.44C663.83 133.12 678.71 161.6 696.95 161.6V163.2H672.47C665.11 163.2 660.63 153.12 635.35 115.2C619.83 91.8402 602.87 91.2002 602.87 80.3202C602.87 76.4802 605.59 74.8802 608.47 74.8802C617.91 74.8802 625.27 84.0002 640.15 84.0002C660.15 84.0002 673.11 64.3202 673.11 45.1202C673.11 18.5602 654.39 2.24019 624.63 2.24019C612.79 2.24019 605.11 3.84019 595.35 7.36019V118.72C595.35 150.24 596.31 161.6 610.07 161.6V163.2H567.03ZM701.718 135.2C701.718 95.8402 765.718 80.8002 765.718 64.1602C765.718 61.1202 763.958 59.8402 761.878 59.8402C754.198 59.8402 749.398 76.6402 740.278 76.6402C735.798 76.6402 734.998 72.3202 736.598 68.1602C746.358 42.4002 752.278 26.5602 762.358 0.000179291H763.958L815.158 135.2C822.198 152.8 827.318 161.6 837.078 161.6V163.2H784.598V161.6C807.158 161.6 806.358 148.64 800.278 132.48L780.438 80.1602C781.078 85.2802 781.398 91.6802 781.398 99.3602C781.398 138.24 762.678 166.4 730.838 166.4C712.278 166.4 701.718 151.84 701.718 135.2ZM715.318 132.16C715.318 147.2 724.758 158.72 740.438 158.72C767.158 158.72 779.798 125.92 779.798 99.6802C779.798 87.8402 779.318 79.0402 776.438 69.6002L757.078 18.5602L738.678 67.5202C736.598 73.1202 737.878 75.0402 740.438 75.0402C747.798 75.0402 753.718 58.2402 762.198 58.2402C765.238 58.2402 767.478 60.3202 767.478 64.4802C767.478 85.9202 715.318 92.6402 715.318 132.16Z" fill="#000000"/>
</svg>
