<svg xmlns="http://www.w3.org/2000/svg" version="1.1" width="515" height="392">
<path d="M0 0 C169.95 0 339.9 0 515 0 C515 129.36 515 258.72 515 392 C345.05 392 175.1 392 0 392 C0 262.64 0 133.28 0 0 Z " fill="#051F41" transform="translate(0,0)"/>
<path d="M0 0 C12.1617981 8.20280527 18.10893426 23.74104978 23.9375 36.5625 C24.4840625 37.75166016 25.030625 38.94082031 25.59375 40.16601562 C26.66611183 42.50186597 27.73467586 44.83946432 28.79907227 47.17895508 C29.78434933 49.34103345 30.77667341 51.49991881 31.77709961 53.6550293 C32.2231958 54.61965088 32.66929199 55.58427246 33.12890625 56.578125 C33.7158728 57.83931152 33.7158728 57.83931152 34.31469727 59.12597656 C35.74417145 62.52705485 36.5637505 65.89238876 37.3125 69.5 C38.22386719 69.2834375 39.13523437 69.066875 40.07421875 68.84375 C48.26658516 67.03408332 56.16517612 66.19917613 64.5625 66.1875 C65.46701904 66.18234375 66.37153809 66.1771875 67.3034668 66.171875 C71.59858151 66.21727019 74.51364424 66.33745024 78.3125 68.5 C77.66812988 68.60546143 77.02375977 68.71092285 76.35986328 68.81958008 C73.38458719 69.31048732 70.41108192 69.81143687 67.4375 70.3125 C66.42429687 70.47814453 65.41109375 70.64378906 64.3671875 70.81445312 C52.79544366 72.64161301 52.79544366 72.64161301 42.3125 77.5 C42.65917725 78.23822998 43.00585449 78.97645996 43.36303711 79.73706055 C49.91184604 93.70402766 56.39955394 107.67499646 62.359375 121.90625 C63.59719893 124.85741833 64.89051605 127.76656872 66.265625 130.65625 C66.56090088 131.29127441 66.85617676 131.92629883 67.16040039 132.58056641 C67.92965103 134.22464672 68.719669 135.85896864 69.51171875 137.4921875 C70.56249232 141.43899554 69.78362021 143.7429853 68.3125 147.5 C65.28908879 150.52341121 62.98128105 150.441335 58.75 150.8125 C50.76371298 150.6784019 43.92489921 147.45225904 38.00675964 142.27874756 C35.25478584 139.38954064 33.9662215 136.18428241 32.55859375 132.49609375 C32.24978775 131.73635757 31.94098175 130.9766214 31.62281799 130.19386292 C30.64666407 127.78203684 29.69753265 125.36069427 28.75 122.9375 C27.79617672 120.54918467 26.83679356 118.1631654 25.87637329 115.77749634 C25.25172896 114.2245294 24.62976522 112.67048136 24.0105896 111.11532593 C21.66910488 105.26605307 19.0978392 99.5686522 16.36352539 93.89086914 C15.3125 91.5 15.3125 91.5 15.3125 89.5 C0.65467289 99.00081419 -13.1242183 108.92718836 -25.8828125 120.875 C-29.29677433 124.07024004 -32.77016011 127.19422045 -36.2578125 130.30859375 C-37.91509747 131.80334756 -39.55517165 133.31735213 -41.1796875 134.84765625 C-49.49740683 142.60826977 -58.4645023 149.73843572 -70.25 149.875 C-71.36503906 149.90335938 -72.48007813 149.93171875 -73.62890625 149.9609375 C-77.31447718 149.40551302 -78.41190301 148.38063807 -80.6875 145.5 C-83.60922685 139.65654631 -80.91536363 133.18908859 -79.04663086 127.40185547 C-78.63936768 126.19674316 -78.23210449 124.99163086 -77.8125 123.75 C-77.49637253 122.80474457 -77.49637253 122.80474457 -77.17385864 121.84039307 C-40.9754643 14.27193782 -40.9754643 14.27193782 -15.78515625 -0.625 C-10.57395598 -2.79875952 -5.09672495 -2.07324405 0 0 Z " fill="#21C4E3" transform="translate(264.6875,47.5)"/>
<path d="M0 0 C0.66 0.33 1.32 0.66 2 1 C0.19631085 3.29282519 -0.70076931 3.9497577 -3.62890625 4.44140625 C-5.08103516 4.50134766 -5.08103516 4.50134766 -6.5625 4.5625 C-10.78238663 4.56844954 -10.78238663 4.56844954 -14 7 C-12.88625 7.185625 -12.88625 7.185625 -11.75 7.375 C-9.19858515 7.95486701 -7.2732427 8.73708739 -5 10 C-5 9.34 -5 8.68 -5 8 C-1.7 7.34 1.6 6.68 5 6 C6.31625194 8.63250388 5.74813658 9.80179056 5.0625 12.625 C4.77052734 13.85089844 4.77052734 13.85089844 4.47265625 15.1015625 C4.31667969 15.72804687 4.16070312 16.35453125 4 17 C2.01432292 17.16276042 0.02864583 17.32552083 -1.95703125 17.48828125 C-4.50456649 18.12638281 -5.35743924 18.97185482 -7 21 C-7.19155839 23.92852144 -7.23632576 26.64624909 -7.125 29.5625 C-6.89405786 37.78811572 -6.89405786 37.78811572 -8 40 C-6.56096954 39.37853192 -5.12383207 38.75267941 -3.6875 38.125 C-2.88699219 37.77695313 -2.08648437 37.42890625 -1.26171875 37.0703125 C1.1961834 35.97428106 1.1961834 35.97428106 4 34 C4.72965366 31.43717258 4.72965366 31.43717258 5 29 C5.66 29 6.32 29 7 29 C7.185625 28.401875 7.37125 27.80375 7.5625 27.1875 C9.71457747 23.9125995 12.29767636 22.8302553 16 22 C20.3462744 21.76191737 24.65227819 21.82347596 29 22 C28.65555119 19.52733235 28.65555119 19.52733235 28 17 C25.29761702 15.64880851 23.13985554 15.86762872 20.125 15.875 C19.07570313 15.87242187 18.02640625 15.86984375 16.9453125 15.8671875 C14.44323315 15.98001336 12.38243077 16.27491238 10 17 C10 15.02 10 13.04 10 11 C16.27204766 7.72762731 22.12382377 6.8242491 29.08984375 8.50390625 C33.36058147 10.08398891 35.07634944 11.9803313 37 16 C37.34057617 18.9543457 37.34057617 18.9543457 37.29296875 22.17578125 C37.28330078 23.33271484 37.27363281 24.48964844 37.26367188 25.68164062 C37.23853516 26.87982422 37.21339844 28.07800781 37.1875 29.3125 C37.17396484 30.53001953 37.16042969 31.74753906 37.14648438 33.00195312 C37.11119261 36.00175345 37.06188481 39.00064975 37 42 C34.36 42 31.72 42 29 42 C29 41.01 29 40.02 29 39 C28.2575 39.66 27.515 40.32 26.75 41 C22.05905776 44.15714967 16.41879239 43.62720881 11 43 C8.12890625 41.9765625 8.12890625 41.9765625 6 41 C4.35 42.65 2.7 44.3 1 46 C1 43 1 43 3 41 C0.76224708 42.00313062 -0.8507388 42.84476835 -2.5625 44.625 C-4 46 -4 46 -7 46 C-9.12708293 47.76248102 -9.12708293 47.76248102 -11.1875 50 C-12.26064453 51.11375 -12.26064453 51.11375 -13.35546875 52.25 C-14.16951172 53.11625 -14.16951172 53.11625 -15 54 C-15.99 52.02 -15.99 52.02 -17 50 C-17.99 50 -18.98 50 -20 50 C-19.34 48.68 -18.68 47.36 -18 46 C-21.43453198 47.53796908 -24.14389276 49.5735602 -27.0625 51.9375 C-27.91972656 52.62714844 -28.77695312 53.31679688 -29.66015625 54.02734375 C-31.96049664 55.89207567 -31.96049664 55.89207567 -33.6796875 57.7734375 C-34.11539063 58.17820312 -34.55109375 58.58296875 -35 59 C-37.0625 58.6875 -37.0625 58.6875 -39 58 C-43.59454447 58 -47.47707854 61.32743889 -51 64 C-54 65 -54 65 -56 65 C-57.79341527 66.32854809 -57.79341527 66.32854809 -59.625 68 C-60.25664062 68.556875 -60.88828125 69.11375 -61.5390625 69.6875 C-62.02117187 70.120625 -62.50328125 70.55375 -63 71 C-65 69 -65 69 -66 67 C-68.31 68.98 -70.62 70.96 -73 73 C-72.67 71.68 -72.34 70.36 -72 69 C-72.515625 69.433125 -73.03125 69.86625 -73.5625 70.3125 C-79.228889 74.23538469 -84.99839802 75.95079341 -91.8125 76.0625 C-97.46715784 76.71331911 -100.44073147 80.92023629 -104 85 C-105.61644288 86.83940052 -107.13442714 88.39353448 -109 90 C-110.32 89.67 -111.64 89.34 -113 89 C-111.02 86.36 -109.04 83.72 -107 81 C-115.94129178 82.26350256 -115.94129178 82.26350256 -124 86 C-124 85.34 -124 84.68 -124 84 C-124.5775 84.61875 -125.155 85.2375 -125.75 85.875 C-130.52247342 88.99546339 -135.43292277 89.25229415 -141 90 C-145.51139611 90.80102914 -147.82271691 91.67829496 -151 95 C-151.886875 94.649375 -152.77375 94.29875 -153.6875 93.9375 C-157.10311356 92.97081692 -158.6554863 93.07096842 -162 94 C-162.66 94 -163.32 94 -164 94 C-166.55674199 94.98235027 -169.06842341 96.05553158 -171.58984375 97.125 C-174 98 -174 98 -177 98 C-177.63164062 98.18691406 -178.26328125 98.37382812 -178.9140625 98.56640625 C-181.43672831 99.0907806 -182.91723884 98.6575809 -185.375 97.9375 C-189.51714495 96.90367539 -192.04324098 97.17380353 -196 99 C-196.33 98.67 -196.66 98.34 -197 98 C-203.94858474 97.43276859 -209.28380033 99.18920022 -215 103 C-216.1446875 102.5359375 -216.1446875 102.5359375 -217.3125 102.0625 C-220.68337797 100.72982732 -222.47963375 101.29592675 -226 102 C-228.33302989 102.03762951 -230.66713319 102.04665734 -233 102 C-233.33 102.66 -233.66 103.32 -234 104 C-234.99 104 -235.98 104 -237 104 C-237.99 104.99 -237.99 104.99 -239 106 C-239.99 106 -240.98 106 -242 106 C-243.63581403 106.44083802 -245.26032026 106.9246306 -246.875 107.4375 C-250.23756126 108.50179691 -253.5436754 109.30873508 -257 110 C-257.86625 110.350625 -258.7325 110.70125 -259.625 111.0625 C-262 112 -262 112 -265 112 C-265 111.34 -265 110.68 -265 110 C-264.16597656 109.74605469 -263.33195312 109.49210937 -262.47265625 109.23046875 C-256.75031575 107.48033712 -251.04625165 105.70167643 -245.37890625 103.78125 C-241.29491287 102.44003707 -237.17243542 101.22260472 -233.05859375 99.9765625 C-230.63775241 99.20362465 -228.33969993 98.35440927 -226 97.375 C-221.73944243 95.73088442 -217.3985838 95.17447012 -212.89038086 94.55688477 C-208.78864135 93.96974527 -204.7064032 93.303611 -200.62109375 92.61328125 C-199.01955589 92.344417 -197.41799278 92.0757031 -195.81640625 91.80712891 C-195.01130615 91.67195862 -194.20620605 91.53678833 -193.37670898 91.39752197 C-189.76145466 90.79284423 -186.14439374 90.19929181 -182.52734375 89.60546875 C-173.34738717 88.09500385 -164.17211182 86.55737912 -155 85 C-154.25145752 84.87304749 -153.50291504 84.74609497 -152.73168945 84.61529541 C-135.54844148 81.69346475 -118.5836332 78.46139608 -101.77978516 73.76318359 C-98.7817182 72.94007124 -95.77432477 72.16266911 -92.76171875 71.39453125 C-91.7248291 71.12962891 -90.68793945 70.86472656 -89.61962891 70.59179688 C-87.64979388 70.08966356 -85.67945266 69.58950977 -83.70849609 69.09179688 C-79.60369028 68.03354399 -75.60707029 66.9135316 -71.6484375 65.390625 C-68.00995918 64.003796 -64.59381529 63.21329435 -60.78515625 62.52734375 C-60.19605469 62.35332031 -59.60695313 62.17929687 -59 62 C-58.67 61.34 -58.34 60.68 -58 60 C-55.53001603 58.98644461 -53.07990019 58.0666911 -50.5625 57.1875 C-44.94194602 55.15982392 -39.61512347 52.94342348 -34.31640625 50.1640625 C-29.39439237 47.69060527 -24.22197638 45.74065879 -19 44 C-19.11809221 38.90950418 -19.24232913 33.81920995 -19.37231445 28.72900391 C-19.4156808 26.99662374 -19.45735463 25.26420037 -19.49731445 23.53173828 C-19.55497594 21.04446373 -19.61868198 18.55740707 -19.68359375 16.0703125 C-19.70866249 14.90461227 -19.70866249 14.90461227 -19.73423767 13.71536255 C-19.76473429 9.72725784 -19.76473429 9.72725784 -21 6 C-19 3.4375 -19 3.4375 -16 1 C-13.83389298 0.9185029 -11.98099169 1.24125261 -9.859375 1.66796875 C-7.64565792 2.06327537 -6.11615893 1.70538631 -4 1 C-3.01 1 -2.02 1 -1 1 C-0.67 0.67 -0.34 0.34 0 0 Z " fill="#076B98" transform="translate(320,218)"/>
<path d="M0 0 C3.21904455 2.66705219 4.63370253 6.11173893 6.29296875 9.84375 C6.60028931 10.52111206 6.90760986 11.19847412 7.22424316 11.8963623 C8.21899189 14.09449478 9.20352994 16.29702408 10.1875 18.5 C10.8672736 20.00925912 11.54736878 21.51837343 12.2277832 23.02734375 C16.69487506 32.96038781 21.05364705 42.93453461 25.15917969 53.02319336 C25.77909587 54.48064438 26.43658795 55.92224899 27.11425781 57.35375977 C27.6745166 58.54183228 27.6745166 58.54183228 28.24609375 59.75390625 C28.59470459 60.4713501 28.94331543 61.18879395 29.30249023 61.92797852 C30.46051359 65.36800098 29.43623344 67.80111642 28 71 C24.97658879 74.02341121 22.66878105 73.941335 18.4375 74.3125 C10.45121298 74.1784019 3.61239921 70.95225904 -2.30574036 65.77874756 C-5.05771416 62.88954064 -6.3462785 59.68428241 -7.75390625 55.99609375 C-8.21711525 54.85648949 -8.21711525 54.85648949 -8.68968201 53.69386292 C-9.66583593 51.28203684 -10.61496735 48.86069427 -11.5625 46.4375 C-12.51629104 44.0492654 -13.47563367 41.66333406 -14.43661499 39.27798462 C-15.06120739 37.72401848 -15.68156224 36.16834193 -16.29751587 34.6109314 C-18.62209811 28.77320865 -21.26087045 23.17232024 -24.14428711 17.58618164 C-25 15 -25 15 -24.47729492 12.82495117 C-22.52091213 10.40816695 -20.59392744 9.50488959 -17.7734375 8.203125 C-16.7421875 7.71972656 -15.7109375 7.23632812 -14.6484375 6.73828125 C-13.56820313 6.24714844 -12.48796875 5.75601563 -11.375 5.25 C-10.28703125 4.74339844 -9.1990625 4.23679688 -8.078125 3.71484375 C-5.39039193 2.46528364 -2.69781462 1.22760384 0 0 Z " fill="#244BF6" transform="translate(305,124)"/>
<path d="M0 0 C-0.24194336 1.86083984 -0.24194336 1.86083984 -1 4 C-2.78735352 5.21337891 -2.78735352 5.21337891 -5.12890625 6.2265625 C-6.42248047 6.80664062 -6.42248047 6.80664062 -7.7421875 7.3984375 C-8.67289062 7.80320313 -9.60359375 8.20796875 -10.5625 8.625 C-25.35273645 15.36790291 -38.42188825 23.73952908 -51 34 C-51.51594727 34.41830078 -52.03189453 34.83660156 -52.56347656 35.26757812 C-59.31560445 40.77180185 -65.73546509 46.57623224 -72.0625 52.5625 C-96.43315699 75.54609132 -96.43315699 75.54609132 -113.15234375 75.56640625 C-116.6262244 74.87544233 -117.80636374 73.72295916 -120 71 C-121.80319789 67.39360421 -121.47193943 63.57221682 -120.328125 59.76171875 C-119.59815505 57.82316649 -118.80383467 55.90910734 -118 54 C-117.34 54.99 -116.68 55.98 -116 57 C-115.52949219 56.55527344 -115.05898437 56.11054688 -114.57421875 55.65234375 C-113.95160156 55.08644531 -113.32898438 54.52054688 -112.6875 53.9375 C-112.07261719 53.36902344 -111.45773438 52.80054688 -110.82421875 52.21484375 C-110.22222656 51.81394531 -109.62023437 51.41304687 -109 51 C-108.01 51.33 -107.02 51.66 -106 52 C-105.26953125 53.84765625 -105.26953125 53.84765625 -104.8125 56.0625 C-104.65394531 56.79597656 -104.49539062 57.52945313 -104.33203125 58.28515625 C-104.16767578 59.13400391 -104.16767578 59.13400391 -104 60 C-100.80554305 58.60286388 -98.81065188 56.97467102 -96.4375 54.4375 C-91.63015914 49.51464078 -86.40406801 45.24916638 -81 41 C-79.59234375 39.88431641 -79.59234375 39.88431641 -78.15625 38.74609375 C-70.47406898 32.80892428 -62.44024176 27.76501811 -54 23 C-53.33339355 22.62343262 -52.66678711 22.24686523 -51.97998047 21.85888672 C-41.66811278 16.09398431 -31.08570261 11.30522522 -20.14160156 6.87255859 C-18.1784233 6.07269549 -16.22426505 5.25522923 -14.2734375 4.42578125 C-3.84939112 0 -3.84939112 0 0 0 Z " fill="#0EC7DA" transform="translate(304,122)"/>
<path d="M0 0 C7.91478313 3.00215912 11.13654096 12.0600849 14.625 19.3125 C14.94017578 19.96299316 15.25535156 20.61348633 15.58007812 21.28369141 C17.74753127 26.0074062 17.74753127 26.0074062 16.625 29.375 C14.03295808 30.69077274 11.4942472 31.83458425 8.8125 32.9375 C-5.28810621 38.96413072 -19.01867878 45.83909399 -32.375 53.375 C-31.72537768 49.16180553 -30.30622702 45.68320352 -28.53125 41.81640625 C-28.24612045 41.19470047 -27.96099091 40.57299469 -27.66722107 39.93244934 C-26.74431887 37.93038415 -25.81118341 35.93338665 -24.875 33.9375 C-24.55886749 33.26092346 -24.24273499 32.58434692 -23.91702271 31.88726807 C-9.45687641 1.05076405 -9.45687641 1.05076405 0 0 Z " fill="#052C63" transform="translate(257.375,97.625)"/>
<path d="M0 0 C-0.66386719 0.32613281 -1.32773437 0.65226562 -2.01171875 0.98828125 C-7.46936865 3.6755314 -7.46936865 3.6755314 -12.75 6.6875 C-15 8 -15 8 -17.8125 8.75 C-22.37476206 10.53912238 -25.47887793 13.65761509 -29 17 C-29 16.01 -29 15.02 -29 14 C-29.515625 14.268125 -30.03125 14.53625 -30.5625 14.8125 C-36.72654546 17.81549651 -41.92576599 19.94960272 -48.8125 20.0625 C-54.46715784 20.71331911 -57.44073147 24.92023629 -61 29 C-62.61644288 30.83940052 -64.13442714 32.39353448 -66 34 C-67.32 33.67 -68.64 33.34 -70 33 C-68.02 30.36 -66.04 27.72 -64 25 C-72.94129178 26.26350256 -72.94129178 26.26350256 -81 30 C-81 29.34 -81 28.68 -81 28 C-81.5775 28.61875 -82.155 29.2375 -82.75 29.875 C-87.52247342 32.99546339 -92.43292277 33.25229415 -98 34 C-102.51139611 34.80102914 -104.82271691 35.67829496 -108 39 C-108.886875 38.649375 -109.77375 38.29875 -110.6875 37.9375 C-114.10311356 36.97081692 -115.6554863 37.07096842 -119 38 C-119.66 38 -120.32 38 -121 38 C-123.55674199 38.98235027 -126.06842341 40.05553158 -128.58984375 41.125 C-131 42 -131 42 -134 42 C-134.63164062 42.18691406 -135.26328125 42.37382812 -135.9140625 42.56640625 C-138.43672831 43.0907806 -139.91723884 42.6575809 -142.375 41.9375 C-146.51714495 40.90367539 -149.04324098 41.17380353 -153 43 C-153.33 42.67 -153.66 42.34 -154 42 C-160.94858474 41.43276859 -166.28380033 43.18920022 -172 47 C-172.763125 46.690625 -173.52625 46.38125 -174.3125 46.0625 C-177.68337797 44.72982732 -179.47963375 45.29592675 -183 46 C-185.33302989 46.03762951 -187.66713319 46.04665734 -190 46 C-190.33 46.66 -190.66 47.32 -191 48 C-191.99 48 -192.98 48 -194 48 C-194.66 48.66 -195.32 49.32 -196 50 C-196.99 50 -197.98 50 -199 50 C-200.63581403 50.44083802 -202.26032026 50.9246306 -203.875 51.4375 C-207.23756126 52.50179691 -210.5436754 53.30873508 -214 54 C-214.86625 54.350625 -215.7325 54.70125 -216.625 55.0625 C-219 56 -219 56 -222 56 C-222 55.34 -222 54.68 -222 54 C-221.16597656 53.74605469 -220.33195312 53.49210937 -219.47265625 53.23046875 C-213.75031575 51.48033712 -208.04625165 49.70167643 -202.37890625 47.78125 C-198.29491287 46.44003707 -194.17243542 45.22260472 -190.05859375 43.9765625 C-187.63775241 43.20362465 -185.33969993 42.35440927 -183 41.375 C-178.73944243 39.73088442 -174.3985838 39.17447012 -169.89038086 38.55688477 C-165.78864135 37.96974527 -161.7064032 37.303611 -157.62109375 36.61328125 C-156.01955589 36.344417 -154.41799278 36.0757031 -152.81640625 35.80712891 C-152.01130615 35.67195862 -151.20620605 35.53678833 -150.37670898 35.39752197 C-146.76145466 34.79284423 -143.14439374 34.19929181 -139.52734375 33.60546875 C-130.34738717 32.09500385 -121.17211182 30.55737912 -112 29 C-111.25145752 28.87304749 -110.50291504 28.74609497 -109.73168945 28.61529541 C-92.54844148 25.69346475 -75.5836332 22.46139608 -58.77978516 17.76318359 C-55.7817182 16.94007124 -52.77432477 16.16266911 -49.76171875 15.39453125 C-48.20638428 14.99717773 -48.20638428 14.99717773 -46.61962891 14.59179688 C-44.64979388 14.08966356 -42.67945266 13.58950977 -40.70849609 13.09179688 C-36.60369028 12.03354399 -32.60707029 10.9135316 -28.6484375 9.390625 C-25.00995918 8.003796 -21.59381529 7.21329435 -17.78515625 6.52734375 C-17.19605469 6.35332031 -16.60695313 6.17929687 -16 6 C-15.67 5.34 -15.34 4.68 -15 4 C-12.88845074 3.02610177 -10.73454042 2.14277613 -8.5625 1.3125 C-7.38816406 0.85488281 -6.21382812 0.39726562 -5.00390625 -0.07421875 C-2 -1 -2 -1 0 0 Z " fill="#07B7BF" transform="translate(277,274)"/>
<path d="M0 0 C2.83203125 0.03255208 5.6640625 0.06510417 8.49609375 0.09765625 C12.27210093 8.7701383 15.51769474 17.5656324 18.57299805 26.51000977 C19.31899512 28.69055947 20.07421547 30.86777486 20.83007812 33.04492188 C21.30914304 34.43861339 21.787679 35.83248687 22.265625 37.2265625 C22.4905513 37.87339493 22.7154776 38.52022736 22.94721985 39.18666077 C23.890938 41.96896567 24.49609375 44.13435369 24.49609375 47.09765625 C21.52609375 47.09765625 18.55609375 47.09765625 15.49609375 47.09765625 C14.50609375 43.13765625 13.51609375 39.17765625 12.49609375 35.09765625 C6.22609375 35.42765625 -0.04390625 35.75765625 -6.50390625 36.09765625 C-6.97828125 37.72703125 -7.45265625 39.35640625 -7.94140625 41.03515625 C-9.37890625 45.97265625 -9.37890625 45.97265625 -10.50390625 47.09765625 C-13.5039407 47.23943482 -16.5014786 47.13994396 -19.50390625 47.09765625 C-17.00302582 38.25461501 -13.90940097 29.6518646 -10.77832031 21.01733398 C-9.87018435 18.5110858 -8.96806262 16.00272623 -8.06640625 13.49414062 C-7.49124085 11.90221529 -6.91573279 10.3104137 -6.33984375 8.71875 C-6.07005707 7.96782578 -5.80027039 7.21690155 -5.52230835 6.44322205 C-3.22332739 0.1257148 -3.22332739 0.1257148 0 0 Z " fill="#F1F2F3" transform="translate(170.50390625,213.90234375)"/>
<path d="M0 0 C4.35095407 2.52408289 6.94354932 5.79294795 8.6875 10.5 C9.69913721 16.71573246 8.90780531 22.02548096 5.6875 27.5 C1.25440067 32.05131531 -2.13696395 33.68496063 -8.4375 33.875 C-14.67294512 33.82671669 -18.73857074 32.80349128 -23.3125 28.5 C-27.38787959 23.10998184 -28.10420682 17.10127376 -27.3125 10.5 C-25.49331531 5.17758536 -22.17581344 2.1903436 -17.3125 -0.5 C-11.62857788 -2.39464071 -5.54502769 -2.39300625 0 0 Z " fill="#F3F4F5" transform="translate(287.3125,227.5)"/>
<path d="M0 0 C0.99 0.495 0.99 0.495 2 1 C0.98972083 1.94886403 -0.03397908 2.88344044 -1.0625 3.8125 C-1.63097656 4.33457031 -2.19945312 4.85664063 -2.78515625 5.39453125 C-5 7 -5 7 -8.140625 8.10546875 C-13.75631737 10.38841045 -17.5789741 15.20312676 -21.6875 19.5 C-23.35592108 21.22083891 -25.02641583 22.93967032 -26.69921875 24.65625 C-27.42971436 25.41744141 -28.16020996 26.17863281 -28.9128418 26.96289062 C-30.84198804 28.84577708 -32.80450045 30.44200342 -35 32 C-35.66 31.67 -36.32 31.34 -37 31 C-36.67 28.69 -36.34 26.38 -36 24 C-36.56847656 24.53109375 -37.13695312 25.0621875 -37.72265625 25.609375 C-43.10063072 30.52945849 -47.99613732 34.66537911 -55 37 C-55 36.01 -55 35.02 -55 34 C-57.46082467 34.95698737 -59.81755638 35.89804621 -62.125 37.1875 C-64 38 -64 38 -67 37 C-67.25652344 37.5775 -67.51304687 38.155 -67.77734375 38.75 C-69.52077512 41.95835933 -71.95341308 44.35165799 -74.44140625 47 C-76.04319579 49.05542919 -76.58539439 50.45557105 -77 53 C-77.556875 52.814375 -78.11375 52.62875 -78.6875 52.4375 C-84.29065275 51.37744407 -87.48684531 53.96052848 -92 57 C-95.375 58.25 -95.375 58.25 -98 59 C-97.505 58.01 -97.505 58.01 -97 57 C-98.32 56.67 -99.64 56.34 -101 56 C-101 54.68 -101 53.36 -101 52 C-102.051875 52.680625 -102.051875 52.680625 -103.125 53.375 C-106.09447954 55.05340148 -108.67670543 56.22220765 -112 57 C-114.375 56.125 -114.375 56.125 -116 55 C-115.01 54.505 -115.01 54.505 -114 54 C-115.73575649 53.12563582 -115.73575649 53.12563582 -118 53 C-118.680625 53.639375 -119.36125 54.27875 -120.0625 54.9375 C-123.99100729 57.69581363 -126.80281402 57.23982268 -131.4765625 56.9453125 C-134.25076416 56.77967343 -134.25076416 56.77967343 -137 59 C-140.6875 58.125 -140.6875 58.125 -144 57 C-144 56.67 -144 56.34 -144 56 C-143.14535156 55.80664062 -142.29070312 55.61328125 -141.41015625 55.4140625 C-140.30542969 55.15367187 -139.20070313 54.89328125 -138.0625 54.625 C-136.96035156 54.36976563 -135.85820312 54.11453125 -134.72265625 53.8515625 C-133.82417969 53.57054687 -132.92570312 53.28953125 -132 53 C-131.67 52.34 -131.34 51.68 -131 51 C-130.01 51 -129.02 51 -128 51 C-128 51.66 -128 52.32 -128 53 C-127.319375 52.75765625 -126.63875 52.5153125 -125.9375 52.265625 C-119.94988117 50.19543764 -113.96503 48.42700662 -107.8125 46.9375 C-102.88653792 45.74353651 -98.05036401 44.4684605 -93.26953125 42.77734375 C-90.37110524 41.78459542 -87.43730368 40.93318863 -84.5 40.0625 C-79.90266085 38.65983156 -75.59401818 37.04424385 -71.25 35 C-68.66740971 33.85218209 -66.04400321 32.92834894 -63.375 32 C-55.07334796 29.07154822 -55.07334796 29.07154822 -49 23 C-48.34 23.33 -47.68 23.66 -47 24 C-42.05940369 22.1091545 -37.34797994 19.75348769 -32.625 17.375 C-31.94381104 17.03307617 -31.26262207 16.69115234 -30.56079102 16.33886719 C-25.3242558 13.69703309 -20.1228705 10.99075702 -14.9375 8.25 C-14.2480127 7.88567871 -13.55852539 7.52135742 -12.84814453 7.14599609 C-9.5557446 5.39533267 -6.32365441 3.59548788 -3.12890625 1.671875 C-1.58009766 0.84429687 -1.58009766 0.84429687 0 0 Z M-98 51 C-98.33 51.66 -98.66 52.32 -99 53 C-98.34 53 -97.68 53 -97 53 C-97.33 52.34 -97.66 51.68 -98 51 Z " fill="#0E8DBF" transform="translate(487,163)"/>
<path d="M0 0 C0 0.66 0 1.32 0 2 C-0.66 2 -1.32 2 -2 2 C-2 2.66 -2 3.32 -2 4 C-2.56203125 4.1959375 -3.1240625 4.391875 -3.703125 4.59375 C-20.48634798 10.56569437 -36.41184462 17.36634164 -52 26 C-53.26930308 26.68792117 -54.53882053 27.37544701 -55.80859375 28.0625 C-68.42119837 34.97747201 -79.50115973 43.19379155 -90 53 C-91.45325172 54.27664127 -92.91127292 55.54788286 -94.375 56.8125 C-97.02120015 59.1158726 -99.56839026 61.46707319 -102 64 C-102.99 63.67 -103.98 63.34 -105 63 C-106.3432072 59.76635305 -107.10142143 56.38036701 -108 53 C-102.03076091 47.44022929 -95.8813673 42.59611513 -89.0625 38.125 C-88.14500977 37.52059082 -87.22751953 36.91618164 -86.28222656 36.29345703 C-66.04568726 23.11137673 -44.01449673 11.43779762 -21 4 C-18.12898698 2.94548956 -15.265225 1.87321248 -12.40234375 0.796875 C-7.88581992 -0.701289 -4.64543084 -1.19453936 0 0 Z " fill="#BEFAD3" transform="translate(304,119)"/>
<path d="M0 0 C4.18119478 7.96594693 7.66373139 16.17957556 11.0625 24.5 C11.5836498 25.76706475 12.10513274 27.03399253 12.62695312 28.30078125 C13.63089462 30.73994968 14.62794542 33.18157686 15.62158203 35.625 C16.50017269 37.77619327 17.39055967 39.92263286 18.29638672 42.0625 C18.67166504 42.9596875 19.04694336 43.856875 19.43359375 44.78125 C19.76286865 45.55533203 20.09214355 46.32941406 20.43139648 47.12695312 C21 49 21 49 20 51 C17.8532253 49.16775986 15.7075956 47.33420426 13.5625 45.5 C12.92086914 44.95263184 12.27923828 44.40526367 11.61816406 43.84130859 C8.09949752 40.8312477 4.64780147 37.77179271 1.25 34.625 C-5.92401301 28.25690742 -13.31984398 24.55664197 -22.53125 21.95703125 C-25 21 -25 21 -27 18 C-4.13114754 0 -4.13114754 0 0 0 Z " fill="#0B2688" transform="translate(280,137)"/>
<path d="M0 0 C3.43750112 2.03443944 4.36090037 3.2568299 6.0625 6.8125 C6.40307617 9.7668457 6.40307617 9.7668457 6.35546875 12.98828125 C6.34580078 14.14521484 6.33613281 15.30214844 6.32617188 16.49414062 C6.30103516 17.69232422 6.27589844 18.89050781 6.25 20.125 C6.22969727 21.9512793 6.22969727 21.9512793 6.20898438 23.81445312 C6.17369261 26.81425345 6.12438481 29.81314975 6.0625 32.8125 C3.4225 32.8125 0.7825 32.8125 -1.9375 32.8125 C-1.9375 31.8225 -1.9375 30.8325 -1.9375 29.8125 C-2.68 30.4725 -3.4225 31.1325 -4.1875 31.8125 C-8.8066535 34.90666981 -14.61911299 34.8198825 -19.9375 33.8125 C-23.68209333 30.71527704 -24.83434316 28.86126121 -25.3125 24 C-25.26821828 20.5143959 -24.99374016 19.88641564 -22.75 16.9375 C-17.88676366 13.26305476 -14.18816603 12.5650118 -8.125 12.6875 C-6.38283203 12.71457031 -6.38283203 12.71457031 -4.60546875 12.7421875 C-3.72503906 12.76539063 -2.84460938 12.78859375 -1.9375 12.8125 C-2.28194881 10.33983235 -2.28194881 10.33983235 -2.9375 7.8125 C-5.63988298 6.46130851 -7.79764446 6.68012872 -10.8125 6.6875 C-11.86179687 6.68492187 -12.91109375 6.68234375 -13.9921875 6.6796875 C-16.49426685 6.79251336 -18.55506923 7.08741238 -20.9375 7.8125 C-20.9375 5.8325 -20.9375 3.8525 -20.9375 1.8125 C-14.18411573 -1.71100484 -7.30183539 -2.70152472 0 0 Z " fill="#F2F3F4" transform="translate(350.9375,227.1875)"/>
<path d="M0 0 C2.64 0 5.28 0 8 0 C8.01981934 0.68102783 8.03963867 1.36205566 8.06005859 2.0637207 C8.15526983 5.14703917 8.26496466 8.22967649 8.375 11.3125 C8.4059375 12.38435547 8.436875 13.45621094 8.46875 14.56054688 C8.50742188 15.58857422 8.54609375 16.61660156 8.5859375 17.67578125 C8.6173584 18.62364502 8.6487793 19.57150879 8.68115234 20.5480957 C8.8489051 23.2530269 8.8489051 23.2530269 11 26 C14.64000616 26.47185265 16.99466857 26.61076587 20.1796875 24.67578125 C23.10511708 20.37552532 22.67901132 15.83537091 22.75 10.75 C22.79447266 9.203125 22.79447266 9.203125 22.83984375 7.625 C22.91044778 5.08325505 22.96319009 2.54242217 23 0 C25.64 0 28.28 0 31 0 C31 10.89 31 21.78 31 33 C28.36 33 25.72 33 23 33 C22.67 32.01 22.34 31.02 22 30 C21.38125 30.66 20.7625 31.32 20.125 32 C15.7492905 34.80045408 12.06747717 34.69177731 7 34 C4.05072084 32.77113369 2.61323803 31.94555438 0.88720703 29.28417969 C-0.26522084 26.31716947 -0.22531568 23.88346237 -0.1953125 20.703125 C-0.18886719 19.49785156 -0.18242187 18.29257813 -0.17578125 17.05078125 C-0.15064453 15.16939453 -0.15064453 15.16939453 -0.125 13.25 C-0.11597656 11.98027344 -0.10695312 10.71054688 -0.09765625 9.40234375 C-0.07409005 6.26803907 -0.04118832 3.13411459 0 0 Z " fill="#F5F6F6" transform="translate(199,227)"/>
<path d="M0 0 C0.66 0.33 1.32 0.66 2 1 C2 2.98 2 4.96 2 7 C2.66 7 3.32 7 4 7 C3.54099175 11.77368582 2.8233567 14.2355244 0 18 C-0.36760731 20.32817964 -0.70241581 22.6618385 -1 25 C-1.66 25.99 -2.32 26.98 -3 28 C-3.29777344 28.64066406 -3.59554687 29.28132813 -3.90234375 29.94140625 C-5.56585981 33.06123886 -8.01132627 35.36111666 -10.44140625 37.90234375 C-12.23719933 40.31923819 -12.47411268 42.06874979 -13 45 C-14.1640625 47.0703125 -14.1640625 47.0703125 -15.625 49.125 C-18.12504788 52.72336989 -20.53070154 56.36022377 -22.875 60.0625 C-23.76832031 61.47208984 -23.76832031 61.47208984 -24.6796875 62.91015625 C-25.33324219 63.94462891 -25.33324219 63.94462891 -26 65 C-26.66 64.67 -27.32 64.34 -28 64 C-28 60.80707433 -27.4416839 59.74853406 -26 57 C-25.51622795 55.63374268 -25.0587656 54.2579468 -24.625 52.875 C-22.54219276 46.51144823 -20.37512699 40.14811404 -16.9375 34.375 C-15.14683712 31.25578079 -13.97430631 28.35216606 -12.79296875 24.984375 C-11.97073945 22.92677656 -10.96383683 21.14061627 -9.8125 19.25 C-7.67528779 16.03796474 -7.67528779 16.03796474 -8 12 C-8.24234375 12.51949219 -8.4846875 13.03898437 -8.734375 13.57421875 C-9.23710937 14.62029297 -9.23710937 14.62029297 -9.75 15.6875 C-10.07484375 16.37199219 -10.3996875 17.05648437 -10.734375 17.76171875 C-12 20 -12 20 -13.94921875 22.35546875 C-16.23977293 25.30919291 -17.58506266 28.19734536 -19.0625 31.625 C-22.03685502 38.52045435 -22.03685502 38.52045435 -25 41 C-24.04261446 34.96860653 -21.18604879 30.10664744 -18.375 24.75 C-17.86582031 23.75097656 -17.35664063 22.75195312 -16.83203125 21.72265625 C-12.52729595 13.46921638 -7.7727634 5.41738055 0 0 Z " fill="#51F7E6" transform="translate(247,48)"/>
<path d="M0 0 C6.6 0 13.2 0 20 0 C20 8.91 20 17.82 20 27 C13.4 27 6.8 27 0 27 C0 18.09 0 9.18 0 0 Z " fill="#030900" transform="translate(249,365)"/>
<path d="M0 0 C0.721875 0.226875 1.44375 0.45375 2.1875 0.6875 C-7.64644161 10.81067518 -7.64644161 10.81067518 -14.8125 12.6875 C-14.8125 11.6975 -14.8125 10.7075 -14.8125 9.6875 C-17.27332467 10.64448737 -19.63005638 11.58554621 -21.9375 12.875 C-23.8125 13.6875 -23.8125 13.6875 -26.8125 12.6875 C-27.06902344 13.265 -27.32554687 13.8425 -27.58984375 14.4375 C-29.33327512 17.64585933 -31.76591308 20.03915799 -34.25390625 22.6875 C-35.85569579 24.74292919 -36.39789439 26.14307105 -36.8125 28.6875 C-37.369375 28.501875 -37.92625 28.31625 -38.5 28.125 C-44.10315275 27.06494407 -47.29934531 29.64802848 -51.8125 32.6875 C-55.1875 33.9375 -55.1875 33.9375 -57.8125 34.6875 C-57.4825 34.0275 -57.1525 33.3675 -56.8125 32.6875 C-58.1325 32.3575 -59.4525 32.0275 -60.8125 31.6875 C-60.3175 30.2025 -60.3175 30.2025 -59.8125 28.6875 C-59.8125 27.6975 -59.8125 26.7075 -59.8125 25.6875 C-46.26393573 17.11715459 -46.26393573 17.11715459 -37.84375 16.953125 C-34.54578456 16.5218526 -33.03415873 14.02308995 -30.8125 11.6875 C-28.54331611 10.93528434 -26.32058347 10.50144155 -23.96875 10.08203125 C-21.39505579 9.61111981 -19.15243195 8.85746597 -16.8125 7.6875 C-16.4825 7.0275 -16.1525 6.3675 -15.8125 5.6875 C-14.140625 4.94140625 -14.140625 4.94140625 -12.0625 4.25 C-9.41330882 3.32915815 -7.50526441 2.48743962 -5.125 0.9375 C-2.8125 -0.3125 -2.8125 -0.3125 0 0 Z M-57.8125 26.6875 C-58.1425 27.3475 -58.4725 28.0075 -58.8125 28.6875 C-58.1525 28.6875 -57.4925 28.6875 -56.8125 28.6875 C-57.1425 28.0275 -57.4725 27.3675 -57.8125 26.6875 Z " fill="#0C72AB" transform="translate(446.8125,187.3125)"/>
<path d="M0 0 C2.203125 0.0234375 2.203125 0.0234375 5.953125 0.3984375 C5.953125 3.0384375 5.953125 5.6784375 5.953125 8.3984375 C3.96744792 8.56119792 1.98177083 8.72395833 -0.00390625 8.88671875 C-2.59255448 9.53511821 -3.4092169 10.29840861 -5.046875 12.3984375 C-5.5509567 14.90716909 -5.5509567 14.90716909 -5.55859375 17.72265625 C-5.59404297 18.75068359 -5.62949219 19.77871094 -5.66601562 20.83789062 C-5.69985352 22.44567383 -5.69985352 22.44567383 -5.734375 24.0859375 C-5.76853516 25.16939453 -5.80269531 26.25285156 -5.83789062 27.36914062 C-5.9204206 30.0454697 -5.98955437 32.72146909 -6.046875 35.3984375 C-12.19921875 35.49609375 -12.19921875 35.49609375 -14.046875 35.3984375 C-15.046875 34.3984375 -15.046875 34.3984375 -15.16040039 31.25561523 C-15.16024133 29.86441053 -15.15455006 28.47319989 -15.14453125 27.08203125 C-15.1431163 26.35097672 -15.14170135 25.61992218 -15.14024353 24.86671448 C-15.13462908 22.52308118 -15.12207422 20.17954211 -15.109375 17.8359375 C-15.10436186 16.25065242 -15.09979863 14.66536584 -15.09570312 13.08007812 C-15.08465497 9.1861614 -15.06738072 5.29231545 -15.046875 1.3984375 C-12.406875 1.3984375 -9.766875 1.3984375 -7.046875 1.3984375 C-6.716875 3.0484375 -6.386875 4.6984375 -6.046875 6.3984375 C-5.551875 5.4084375 -5.056875 4.4184375 -4.546875 3.3984375 C-2.046875 0.3984375 -2.046875 0.3984375 0 0 Z " fill="#E7EBED" transform="translate(317.046875,225.6015625)"/>
<path d="M0 0 C0 2.64 0 5.28 0 8 C-0.69867188 8.09796875 -1.39734375 8.1959375 -2.1171875 8.296875 C-3.02726562 8.44640625 -3.93734375 8.5959375 -4.875 8.75 C-6.23238281 8.95882812 -6.23238281 8.95882812 -7.6171875 9.171875 C-10.10115554 9.75987778 -10.10115554 9.75987778 -11.12304688 11.75390625 C-12.08324105 14.21320091 -12.31279993 16.13279813 -12.4140625 18.765625 C-12.47207031 20.09980469 -12.47207031 20.09980469 -12.53125 21.4609375 C-12.57765625 22.84152344 -12.57765625 22.84152344 -12.625 24.25 C-12.68300781 25.65378906 -12.68300781 25.65378906 -12.7421875 27.0859375 C-12.83624844 29.39043054 -12.92189399 31.69492013 -13 34 C-15.64 34 -18.28 34 -21 34 C-21 23.11 -21 12.22 -21 1 C-18.36 1 -15.72 1 -13 1 C-12.67 2.32 -12.34 3.64 -12 5 C-11.401875 4.360625 -10.80375 3.72125 -10.1875 3.0625 C-6.91607132 -0.0219899 -4.32190112 -0.11680814 0 0 Z " fill="#F3F4F5" transform="translate(258,226)"/>
<path d="M0 0 C2.69105198 2.17574416 4.45532928 3.91065856 6 7 C6.49170132 11.91701315 6.48320696 14.09801367 4.125 18.5 C1.63321806 21.10601836 -0.51034323 21.4933644 -4.0625 21.6875 C-7.53145417 21.45004183 -8.73047675 21.20378587 -11.5625 19.0625 C-13.45578434 15.02898119 -14.35346774 11.46940314 -14 7 C-10.67629911 0.58181896 -7.21254774 -1.271177 0 0 Z " fill="#136294" transform="translate(282,233)"/>
<path d="M0 0 C0 0.66 0 1.32 0 2 C-0.66 2 -1.32 2 -2 2 C-2 2.66 -2 3.32 -2 4 C-2.56203125 4.1959375 -3.1240625 4.391875 -3.703125 4.59375 C-19.8423168 10.3365299 -35.24557301 16.76888529 -50.23266602 25.09545898 C-52 26 -52 26 -55 27 C-55 24 -55 24 -53.609375 22.31640625 C-52.99578125 21.73761719 -52.3821875 21.15882813 -51.75 20.5625 C-51.14671875 19.98628906 -50.5434375 19.41007812 -49.921875 18.81640625 C-49.28765625 18.21699219 -48.6534375 17.61757812 -48 17 C-47.3709375 16.31550781 -46.741875 15.63101563 -46.09375 14.92578125 C-43.73575966 12.75695804 -41.72456859 11.79654797 -38.75 10.625 C-37.69425781 10.20734375 -36.63851563 9.7896875 -35.55078125 9.359375 C-34.37902344 8.91078125 -33.20726562 8.4621875 -32 8 C-30.68096208 7.48444536 -29.36195261 6.96881794 -28.04296875 6.453125 C-6.82521931 -1.75782735 -6.82521931 -1.75782735 0 0 Z " fill="#58F6F6" transform="translate(304,119)"/>
<path d="M0 0 C0.99 0.495 0.99 0.495 2 1 C-4.21596956 5.01030294 -10.79036652 9.11757814 -18.3671875 7.4921875 C-19.19476563 7.28851563 -20.02234375 7.08484375 -20.875 6.875 C-25.18814354 5.95622386 -27.91741145 6.06614226 -32 8 C-32.495 7.505 -32.495 7.505 -33 7 C-39.94858474 6.43276859 -45.28380033 8.18920022 -51 12 C-51.763125 11.690625 -52.52625 11.38125 -53.3125 11.0625 C-56.68337797 9.72982732 -58.47963375 10.29592675 -62 11 C-64.33302989 11.03762951 -66.66713319 11.04665734 -69 11 C-69.33 11.66 -69.66 12.32 -70 13 C-70.99 13 -71.98 13 -73 13 C-73.66 13.66 -74.32 14.32 -75 15 C-75.99 15 -76.98 15 -78 15 C-79.63581403 15.44083802 -81.26032026 15.9246306 -82.875 16.4375 C-86.23756126 17.50179691 -89.5436754 18.30873508 -93 19 C-93.86625 19.350625 -94.7325 19.70125 -95.625 20.0625 C-98 21 -98 21 -101 21 C-101 20.34 -101 19.68 -101 19 C-100.16597656 18.74605469 -99.33195312 18.49210937 -98.47265625 18.23046875 C-92.75031575 16.48033712 -87.04625165 14.70167643 -81.37890625 12.78125 C-78.4122446 11.80697688 -75.42576988 10.90574426 -72.4375 10 C-68.7584231 8.88084024 -65.14176585 7.71815038 -61.5625 6.3125 C-48.09225518 1.34977822 -29.21349224 1.81945612 -15.1875 3.75 C-10.07961875 4.33113619 -6.56833938 3.03644027 -1.99609375 0.8125 C-1.33738281 0.544375 -0.67867188 0.27625 0 0 Z " fill="#079EA0" transform="translate(156,309)"/>
<path d="M0 0 C-1.65 1.32 -3.3 2.64 -5 4 C-5 3.34 -5 2.68 -5 2 C-5.86625 2.928125 -5.86625 2.928125 -6.75 3.875 C-11.52247342 6.99546339 -16.43292277 7.25229415 -22 8 C-26.51139611 8.80102914 -28.82271691 9.67829496 -32 13 C-32.886875 12.649375 -33.77375 12.29875 -34.6875 11.9375 C-38.06203126 10.98244398 -39.69686152 11.02848868 -43 12 C-43 11.34 -43 10.68 -43 10 C-47.79837914 11.30057838 -47.79837914 11.30057838 -52.42456055 13.09350586 C-55.31789811 14.11189266 -57.00231162 14.03947274 -60.01953125 13.62890625 C-66.26240814 12.91732099 -72.41021826 12.88752776 -78.6875 12.9375 C-79.78255859 12.94201172 -80.87761719 12.94652344 -82.00585938 12.95117188 C-84.67063309 12.96280844 -87.33528517 12.97915436 -90 13 C-90 12.67 -90 12.34 -90 12 C-86.00707552 11.04224247 -82.33803922 10.91002379 -78.23828125 10.97265625 C-76.95501953 10.98490234 -75.67175781 10.99714844 -74.34960938 11.00976562 C-72.3217727 11.03467884 -70.29407687 11.06280115 -68.26635742 11.09594727 C-66.29877934 11.12605721 -64.33101754 11.1433041 -62.36328125 11.16015625 C-60.60431519 11.18541382 -60.60431519 11.18541382 -58.80981445 11.21118164 C-55.86199507 11.29674332 -55.86199507 11.29674332 -54 9 C-51.64238493 8.423566 -49.2624553 7.93667174 -46.875 7.5 C-40.89748124 6.39760899 -40.89748124 6.39760899 -35 4.9375 C-29.95463513 3.598708 -24.72763813 3.15330268 -19.55859375 2.5078125 C-16.79372885 2.11326537 -14.24113089 1.62819918 -11.5625 0.875 C-7.50428774 -0.12175389 -4.16000534 -0.14857162 0 0 Z " fill="#07A5AE" transform="translate(201,300)"/>
<path d="M0 0 C-0.99580078 0.48919922 -0.99580078 0.48919922 -2.01171875 0.98828125 C-7.46936865 3.6755314 -7.46936865 3.6755314 -12.75 6.6875 C-15 8 -15 8 -17.8125 8.75 C-22.37476206 10.53912238 -25.47887793 13.65761509 -29 17 C-29 16.01 -29 15.02 -29 14 C-29.515625 14.268125 -30.03125 14.53625 -30.5625 14.8125 C-36.72654546 17.81549651 -41.92576599 19.94960272 -48.8125 20.0625 C-54.46715784 20.71331911 -57.44073147 24.92023629 -61 29 C-62.61644288 30.83940052 -64.13442714 32.39353448 -66 34 C-67.32 33.67 -68.64 33.34 -70 33 C-68.02 30.36 -66.04 27.72 -64 25 C-64.99 24.67 -65.98 24.34 -67 24 C-66.34 23.34 -65.68 22.68 -65 22 C-63.68 22 -62.36 22 -61 22 C-61 21.34 -61 20.68 -61 20 C-59.78183594 19.66226562 -58.56367188 19.32453125 -57.30859375 18.9765625 C-55.68489196 18.52605564 -54.06119426 18.07553403 -52.4375 17.625 C-51.23770508 17.29242188 -51.23770508 17.29242188 -50.01367188 16.953125 C-49.22412109 16.73398437 -48.43457031 16.51484375 -47.62109375 16.2890625 C-46.83984131 16.07266113 -46.05858887 15.85625977 -45.25366211 15.63330078 C-43.19459844 15.05468404 -41.14442962 14.45121903 -39.09375 13.84375 C-36.22058919 13.06016069 -33.95547031 12.82088059 -31 13 C-30.67 12.01 -30.34 11.02 -30 10 C-27.6015625 8.83203125 -27.6015625 8.83203125 -24.625 7.8125 C-23.64789063 7.46832031 -22.67078125 7.12414062 -21.6640625 6.76953125 C-19 6 -19 6 -16 6 C-15.67 5.34 -15.34 4.68 -15 4 C-12.88845074 3.02610177 -10.73454042 2.14277613 -8.5625 1.3125 C-7.38816406 0.85488281 -6.21382813 0.39726562 -5.00390625 -0.07421875 C-2 -1 -2 -1 0 0 Z " fill="#0993AF" transform="translate(277,274)"/>
<path d="M0 0 C0.99 0.33 1.98 0.66 3 1 C3.94921875 3.28515625 3.94921875 3.28515625 4.6875 6.0625 C4.93886719 6.98160156 5.19023437 7.90070313 5.44921875 8.84765625 C5.63097656 9.55792969 5.81273437 10.26820313 6 11 C4.58972554 12.46451579 3.17151204 13.9213893 1.75 15.375 C0.96109375 16.18710938 0.1721875 16.99921875 -0.640625 17.8359375 C-3.80564953 20.73895669 -5.68552859 22 -10 22 C-12.35599061 18.31876467 -12.35837173 15.30046079 -12 11 C-11.16168758 8.23308444 -10.12499988 5.67187471 -9 3 C-8.01 4.485 -8.01 4.485 -7 6 C-6.52949219 5.55527344 -6.05898437 5.11054688 -5.57421875 4.65234375 C-4.95160156 4.08644531 -4.32898438 3.52054688 -3.6875 2.9375 C-3.07261719 2.36902344 -2.45773438 1.80054688 -1.82421875 1.21484375 C-1.22222656 0.81394531 -0.62023437 0.41304687 0 0 Z " fill="#13DBDD" transform="translate(195,173)"/>
<path d="M0 0 C0.66 0.66 1.32 1.32 2 2 C1.67 2.99 1.34 3.98 1 5 C2.32 5.66 3.64 6.32 5 7 C5 10 5 10 2.296875 12.84765625 C1.12227804 13.92769948 -0.06040583 14.99899772 -1.25 16.0625 C-1.83652344 16.60455078 -2.42304688 17.14660156 -3.02734375 17.70507812 C-6.0120487 20.41814139 -8.31256862 22.15628431 -12 24 C-13.32 20.7 -14.64 17.4 -16 14 C-11.65208747 8.00287927 -6.05706051 4.17947783 0 0 Z " fill="#98F9C6" transform="translate(212,159)"/>
<path d="M0 0 C0 0.99 0 1.98 0 3 C0.02320313 4.13308594 0.04640625 5.26617187 0.0703125 6.43359375 C0.08886745 7.76822468 0.10708537 9.10286032 0.125 10.4375 C0.14820313 11.75621094 0.17140625 13.07492188 0.1953125 14.43359375 C0.01749414 17.68055704 -0.15862856 19.37958679 -2 22 C-2.66 22.33 -3.32 22.66 -4 23 C-4.71706982 24.98248715 -5.38290413 26.98415349 -6 29 C-6.33 29.66 -6.66 30.32 -7 31 C-7.66 31 -8.32 31 -9 31 C-9.2475 31.804375 -9.495 32.60875 -9.75 33.4375 C-11.86973597 39.47874752 -14.27631447 45.75298857 -18 51 C-18.66 51 -19.32 51 -20 51 C-17.91854598 43.44684486 -15.53623932 36.15943249 -11.4375 29.4375 C-9.83688911 26.72342067 -8.8780549 24.01459626 -7.828125 21.0546875 C-6.98947151 18.97387742 -5.97870488 17.16356152 -4.8125 15.25 C-2.67528779 12.03796474 -2.67528779 12.03796474 -3 8 C-3.24234375 8.51949219 -3.4846875 9.03898437 -3.734375 9.57421875 C-4.06953125 10.27160156 -4.4046875 10.96898437 -4.75 11.6875 C-5.07484375 12.37199219 -5.3996875 13.05648437 -5.734375 13.76171875 C-7 16 -7 16 -8.94921875 18.35546875 C-11.23977293 21.30919291 -12.58506266 24.19734536 -14.0625 27.625 C-17.03685502 34.52045435 -17.03685502 34.52045435 -20 37 C-19.04261446 30.96860653 -16.18604879 26.10664744 -13.375 20.75 C-12.86582031 19.75097656 -12.35664063 18.75195312 -11.83203125 17.72265625 C-8.46548164 11.26799346 -4.6833161 5.57379346 0 0 Z " fill="#65FAE6" transform="translate(242,52)"/>
<path d="M0 0 C0.33 0.99 0.66 1.98 1 3 C3.50447516 4.21869929 3.50447516 4.21869929 6 5 C6 5.33 6 5.66 6 6 C4.9584375 6.04898438 3.916875 6.09796875 2.84375 6.1484375 C-7.17988852 6.65827369 -17.05956841 7.62198593 -27 9 C-27 7 -27 7 -25.6796875 5.52734375 C-21.87129938 2.17233517 -19.27214518 0.25717781 -14 0 C-14 -0.66 -14 -1.32 -14 -2 C-9.02375846 -3.65874718 -4.5921962 -2.2960981 0 0 Z " fill="#0F508D" transform="translate(329,108)"/>
<path d="M0 0 C0.66 0.66 1.32 1.32 2 2 C1.7578125 4.1640625 1.7578125 4.1640625 1.125 6.625 C0.92132813 7.44226563 0.71765625 8.25953125 0.5078125 9.1015625 C0.34023438 9.72804687 0.17265625 10.35453125 0 11 C-1.98567708 11.16276042 -3.97135417 11.32552083 -5.95703125 11.48828125 C-8.50456649 12.12638281 -9.35743924 12.97185482 -11 15 C-11.19155839 17.92852144 -11.23632576 20.64624909 -11.125 23.5625 C-10.89405786 31.78811572 -10.89405786 31.78811572 -12 34 C-10.56096954 33.37853192 -9.12383207 32.75267941 -7.6875 32.125 C-6.88699219 31.77695313 -6.08648437 31.42890625 -5.26171875 31.0703125 C-2.8038166 29.97428106 -2.8038166 29.97428106 0 28 C0.72965366 25.43717258 0.72965366 25.43717258 1 23 C1.33 23 1.66 23 2 23 C2.66 26.63 3.32 30.26 4 34 C1.36 35.98 -1.28 37.96 -4 40 C-3.34 38.68 -2.68 37.36 -2 36 C-2.66 36 -3.32 36 -4 36 C-4.639375 36.66 -5.27875 37.32 -5.9375 38 C-8 40 -8 40 -11 40 C-13.12708293 41.76248102 -13.12708293 41.76248102 -15.1875 44 C-15.90292969 44.7425 -16.61835938 45.485 -17.35546875 46.25 C-17.89816406 46.8275 -18.44085938 47.405 -19 48 C-19.66 47.01 -20.32 46.02 -21 45 C-19.89467467 42.08596049 -19.29419123 41.15007109 -16.45336914 39.70092773 C-13.76686278 38.24155819 -13.76686278 38.24155819 -13.40405273 35.51977539 C-13.41380127 34.55547607 -13.4235498 33.59117676 -13.43359375 32.59765625 C-13.4171582 31.01500977 -13.4171582 31.01500977 -13.40039062 29.40039062 C-13.41263672 28.29888672 -13.42488281 27.19738281 -13.4375 26.0625 C-13.45410854 23.88678175 -13.4535055 21.71084678 -13.43359375 19.53515625 C-13.44447021 18.569729 -13.45534668 17.60430176 -13.46655273 16.60961914 C-12.86789033 13.2610569 -11.62420122 12.09078496 -9 10 C-6.21857957 9.49244153 -3.8542771 9.80971486 -1 10 C-1 7.36 -1 4.72 -1 2 C-2.65 2 -4.3 2 -6 2 C-6 1.67 -6 1.34 -6 1 C-3.125 0.375 -3.125 0.375 0 0 Z " fill="#0D5580" transform="translate(324,224)"/>
<path d="M0 0 C0.66 0.33 1.32 0.66 2 1 C0.98972083 1.94886403 -0.03397908 2.88344044 -1.0625 3.8125 C-1.63097656 4.33457031 -2.19945312 4.85664063 -2.78515625 5.39453125 C-5 7 -5 7 -8.140625 8.10546875 C-13.75631737 10.38841045 -17.5789741 15.20312676 -21.6875 19.5 C-23.35592108 21.22083891 -25.02641583 22.93967032 -26.69921875 24.65625 C-27.79496216 25.79803711 -27.79496216 25.79803711 -28.9128418 26.96289062 C-30.84198804 28.84577708 -32.80450045 30.44200342 -35 32 C-35.66 31.67 -36.32 31.34 -37 31 C-36.34 28.36 -35.68 25.72 -35 23 C-34.34 23 -33.68 23 -33 23 C-33 22.34 -33 21.68 -33 21 C-26.36817471 13.81243516 -17.59925971 9.13760051 -8.88671875 4.94921875 C-6.90327152 3.95133536 -5.02497604 2.83532058 -3.125 1.6875 C-2.09375 1.130625 -1.0625 0.57375 0 0 Z " fill="#0C4392" transform="translate(487,163)"/>
<path d="M0 0 C0.92022949 -0.00918457 1.84045898 -0.01836914 2.78857422 -0.02783203 C3.66271973 -0.02380371 4.53686523 -0.01977539 5.4375 -0.015625 C6.21996094 -0.01336914 7.00242187 -0.01111328 7.80859375 -0.00878906 C10.24450616 0.27887439 11.88488991 1.03706386 14 2.25 C13.35562988 2.35546143 12.71125977 2.46092285 12.04736328 2.56958008 C9.07208719 3.06048732 6.09858192 3.56143687 3.125 4.0625 C1.60519531 4.3109668 1.60519531 4.3109668 0.0546875 4.56445312 C-6.47562461 5.67376896 -12.7082279 7.18179052 -19 9.25 C-20.19625 9.641875 -21.3925 10.03375 -22.625 10.4375 C-23.40875 10.705625 -24.1925 10.97375 -25 11.25 C-25 10.26 -25 9.27 -25 8.25 C-25.66 7.92 -26.32 7.59 -27 7.25 C-26.34 7.25 -25.68 7.25 -25 7.25 C-25.33 6.26 -25.66 5.27 -26 4.25 C-18.60451727 -0.68032182 -8.60909975 0.0487224 0 0 Z " fill="#1FB9F1" transform="translate(329,113.75)"/>
<path d="M0 0 C1.32 0 2.64 0 4 0 C2.97088923 2.21654627 1.91765775 4.10869177 0.4375 6.0625 C-1.18688728 8.04181496 -1.18688728 8.04181496 -2 11 C-2.556875 10.814375 -3.11375 10.62875 -3.6875 10.4375 C-9.29065275 9.37744407 -12.48684531 11.96052848 -17 15 C-20.375 16.25 -20.375 16.25 -23 17 C-22.67 16.34 -22.34 15.68 -22 15 C-23.32 14.67 -24.64 14.34 -26 14 C-23.13101771 10.97162981 -20.75865972 8.75908023 -17 7 C-16.20722656 6.57460937 -15.41445313 6.14921875 -14.59765625 5.7109375 C-13.76105469 5.27007812 -12.92445313 4.82921875 -12.0625 4.375 C-11.22847656 3.92898437 -10.39445312 3.48296875 -9.53515625 3.0234375 C-6.80671059 1.92196945 -4.90362494 1.97052157 -2 2 C-1.34 1.34 -0.68 0.68 0 0 Z " fill="#0A568E" transform="translate(412,205)"/>
<path d="M0 0 C-2.15381444 5.28663545 -6.42236838 8.77870367 -11 12 C-11.33 11.67 -11.66 11.34 -12 11 C-14.33944736 11.28730055 -16.6739143 11.61936779 -19 12 C-19 11.34 -19 10.68 -19 10 C-19.61875 9.690625 -20.2375 9.38125 -20.875 9.0625 C-22.25 8.375 -23.625 7.6875 -25 7 C-25 6.34 -25 5.68 -25 5 C-22.60468067 4.35220924 -20.20878252 3.70670991 -17.8125 3.0625 C-17.13896484 2.88009766 -16.46542969 2.69769531 -15.77148438 2.50976562 C-10.41892037 1.07371187 -5.55540932 -0.15872598 0 0 Z " fill="#0E4885" transform="translate(335,117)"/>
<path d="M0 0 C0 3 0 3 -1.49609375 4.71875 C-2.45708984 5.60046875 -2.45708984 5.60046875 -3.4375 6.5 C-5.92139791 8.78819687 -6.90880131 9.72640392 -8 13 C-9.53466797 14.25854492 -9.53466797 14.25854492 -11.4921875 15.48046875 C-12.54986328 16.14272461 -12.54986328 16.14272461 -13.62890625 16.81835938 C-14.74072266 17.49608398 -14.74072266 17.49608398 -15.875 18.1875 C-16.60847656 18.65091797 -17.34195313 19.11433594 -18.09765625 19.59179688 C-23.60900681 23 -23.60900681 23 -27 23 C-25.8553125 21.6696875 -25.8553125 21.6696875 -24.6875 20.3125 C-22.49841842 17.67437604 -20.54066709 15.08133418 -19 12 C-19.33 11.34 -19.66 10.68 -20 10 C-13.4 6.7 -6.8 3.4 0 0 Z " fill="#91F7DF" transform="translate(256,134)"/>
<path d="M0 0 C-0.66 0 -1.32 0 -2 0 C-2 0.66 -2 1.32 -2 2 C-9.02153936 5.32083275 -14.91710324 7.33397554 -22.68359375 7.6875 C-25.23481271 7.824305 -25.23481271 7.824305 -27.5 10.0625 C-31.07518572 12.83326893 -34.08388306 12.22211148 -38.4765625 11.9453125 C-41.25076416 11.77967343 -41.25076416 11.77967343 -44 14 C-47.6875 13.125 -47.6875 13.125 -51 12 C-51 11.67 -51 11.34 -51 11 C-50.14535156 10.80664062 -49.29070312 10.61328125 -48.41015625 10.4140625 C-46.75306641 10.02347656 -46.75306641 10.02347656 -45.0625 9.625 C-43.96035156 9.36976563 -42.85820312 9.11453125 -41.72265625 8.8515625 C-40.82417969 8.57054687 -39.92570312 8.28953125 -39 8 C-38.67 7.34 -38.34 6.68 -38 6 C-37.01 6 -36.02 6 -35 6 C-35 6.66 -35 7.32 -35 8 C-33.9790625 7.63648438 -33.9790625 7.63648438 -32.9375 7.265625 C-25.49636848 4.69289336 -18.01645739 2.673422 -10.37109375 0.83203125 C-3.10090361 -0.9623494 -3.10090361 -0.9623494 0 0 Z " fill="#0B93B7" transform="translate(394,208)"/>
<path d="M0 0 C2.17515859 3.26273789 3.31011941 6.30910713 4.625 10 C5.07101563 11.2375 5.51703125 12.475 5.9765625 13.75 C7 17 7 17 7 20 C2.38 20 -2.24 20 -7 20 C-6.02265137 17.04105462 -5.04320756 14.08283196 -4.0625 11.125 C-3.78470703 10.28324219 -3.50691406 9.44148437 -3.22070312 8.57421875 C-2.95322266 7.76855469 -2.68574219 6.96289062 -2.41015625 6.1328125 C-2.16402588 5.38918457 -1.91789551 4.64555664 -1.66430664 3.87939453 C-1 2 -1 2 0 0 Z " fill="#144163" transform="translate(173,222)"/>
<path d="M0 0 C0.680625 0.804375 0.680625 0.804375 1.375 1.625 C1.91125 2.07875 2.4475 2.5325 3 3 C5.65466049 2.76956136 5.65466049 2.76956136 8 2 C4.65212866 5.86700328 0.89895965 6.30014862 -4 7 C-6.33302989 7.03762951 -8.66713319 7.04665734 -11 7 C-11.99 7.33 -12.98 7.66 -14 8 C-14.33 7.34 -14.66 6.68 -15 6 C-18.87132028 6.57352893 -21.08172796 8.48704352 -24 11 C-23.39211202 8.02810322 -22.85701242 5.72890232 -20.484375 3.7109375 C-16.81913808 1.49585954 -14.31087693 0.78445615 -10 1 C-8.80375 0.649375 -7.6075 0.29875 -6.375 -0.0625 C-3 -1 -3 -1 0 0 Z " fill="#09A7A2" transform="translate(103,304)"/>
<path d="M0 0 C2.16874252 0.50603992 3.99967627 0.99983813 6 2 C5.67 2.99 5.34 3.98 5 5 C4.34 5.28875 3.68 5.5775 3 5.875 C0.70849401 6.8553382 0.70849401 6.8553382 0.25 9.625 C0.1675 10.40875 0.085 11.1925 0 12 C-4.15217057 13.58177926 -7.54736965 14.40478458 -12 14 C-12.66 13.34 -13.32 12.68 -14 12 C-15.9931567 11.97624074 -15.9931567 11.97624074 -18.125 12.375 C-19.40375 12.58125 -20.6825 12.7875 -22 13 C-20.35 11.02 -18.7 9.04 -17 7 C-16.236875 7.33 -15.47375 7.66 -14.6875 8 C-12.00930865 9.17436686 -12.00930865 9.17436686 -9 9 C-8.360625 8.34 -7.72125 7.68 -7.0625 7 C-5 5 -5 5 -1 5 C-0.67 3.35 -0.34 1.7 0 0 Z " fill="#0F89BB" transform="translate(406,187)"/>
<path d="M0 0 C0.49046322 5.39509537 0.49046322 5.39509537 -1.875 8.3125 C-5.63661036 11.29966117 -8.22122425 11.25600584 -13 11 C-15 9 -15 9 -15.375 6.5625 C-15 4 -15 4 -13.375 2.25 C-9.10152108 0.00080057 -4.75527983 -0.13986117 0 0 Z " fill="#134C6F" transform="translate(349,244)"/>
<path d="M0 0 C0.66 0.33 1.32 0.66 2 1 C2 2.98 2 4.96 2 7 C2.66 7 3.32 7 4 7 C3.54099175 11.77368582 2.8233567 14.2355244 0 18 C-0.36760731 20.32817964 -0.70241581 22.6618385 -1 25 C-1.66 25.99 -2.32 26.98 -3 28 C-3.68177416 29.32567199 -4.35191436 30.65753688 -5 32 C-5.99 32 -6.98 32 -8 32 C-7.53980994 29.85244641 -7.04305551 28.07943575 -5.9921875 26.140625 C-4.91269131 23.81163322 -4.67456928 22.04871143 -4.5 19.5 C-4.2689978 16.12736784 -3.52123011 13.9952903 -2 11 C-1.55499715 8.87406942 -1.55499715 8.87406942 -1.375 6.75 C-1.189375 4.89375 -1.189375 4.89375 -1 3 C-1.66 2.67 -2.32 2.34 -3 2 C-2.01 1.34 -1.02 0.68 0 0 Z M-7 32 C-7 35 -7 35 -7 35 Z " fill="#3AF6F4" transform="translate(247,48)"/>
<path d="M0 0 C1.0725 0.165 2.145 0.33 3.25 0.5 C7.03028752 1.08810915 7.03028752 1.08810915 11 1 C11.99 1.33 12.98 1.66 14 2 C14 2.66 14 3.32 14 4 C8.06 7.3 2.12 10.6 -4 14 C-5.305239 10.08428299 -4.32239848 8.96107003 -2.5625 5.3125 C-2.08941406 4.31863281 -1.61632812 3.32476562 -1.12890625 2.30078125 C-0.75636719 1.54152344 -0.38382813 0.78226563 0 0 Z " fill="#0B6083" transform="translate(230,137)"/>
<path d="M0 0 C-0.66386719 0.32613281 -1.32773437 0.65226562 -2.01171875 0.98828125 C-7.46936865 3.6755314 -7.46936865 3.6755314 -12.75 6.6875 C-15 8 -15 8 -17.8125 8.75 C-22.37476206 10.53912238 -25.47887793 13.65761509 -29 17 C-29 16.01 -29 15.02 -29 14 C-29.51046875 14.31710937 -30.0209375 14.63421875 -30.546875 14.9609375 C-33.80214659 16.33976273 -36.72843132 16.4293573 -40.25 16.625 C-41.51328125 16.69976562 -42.7765625 16.77453125 -44.078125 16.8515625 C-45.52445313 16.92503906 -45.52445313 16.92503906 -47 17 C-41.87447606 14.33068994 -36.83702609 12.64624084 -31 13 C-30.67 12.01 -30.34 11.02 -30 10 C-27.6015625 8.83203125 -27.6015625 8.83203125 -24.625 7.8125 C-23.15933594 7.29623047 -23.15933594 7.29623047 -21.6640625 6.76953125 C-19 6 -19 6 -16 6 C-15.67 5.34 -15.34 4.68 -15 4 C-12.88845074 3.02610177 -10.73454042 2.14277613 -8.5625 1.3125 C-7.38816406 0.85488281 -6.21382813 0.39726562 -5.00390625 -0.07421875 C-2 -1 -2 -1 0 0 Z " fill="#089AB8" transform="translate(277,274)"/>
<path d="M0 0 C0.99 0 1.98 0 3 0 C3.25006458 7.50193748 3.25006458 7.50193748 2.0546875 9.8828125 C0.2702316 13.46494249 0.10079349 17.38884755 -0.4375 21.3203125 C-1 24 -1 24 -3 26 C-3.1546875 27.3921875 -3.1546875 27.3921875 -3.3125 28.8125 C-4.18028029 32.83584497 -5.94981523 34.34086456 -9 37 C-8.46147465 31.72245155 -7.34981281 27.69962561 -5 23 C-4.34 22.67 -3.68 22.34 -3 22 C-1.64831022 16.99874781 -1.99698228 11.93487697 -2.16015625 6.8046875 C-1.99807242 3.96624393 -1.46475355 2.40104699 0 0 Z " fill="#4FF8EF" transform="translate(243,51)"/>
<path d="M0 0 C-1.53279593 1.53279593 -3.04748035 1.03806258 -5.1875 1.0625 C-14.07836528 1.81944235 -22.09167552 7.69648541 -29 13 C-31.875 14.8125 -31.875 14.8125 -35 16 C-38.375 15.1875 -38.375 15.1875 -41 14 C-40.34 13.67 -39.68 13.34 -39 13 C-39 12.34 -39 11.68 -39 11 C-38.030625 10.9175 -37.06125 10.835 -36.0625 10.75 C-32.00725317 10.19663638 -28.66640155 8.63331964 -25.015625 6.83984375 C-23 6 -23 6 -20 6 C-20 5.34 -20 4.68 -20 4 C-13.90282414 -0.10896634 -7.25416021 -2.4180534 0 0 Z " fill="#0D87B4" transform="translate(412,204)"/>
<path d="M0 0 C0.66 0.33 1.32 0.66 2 1 C1.01 2.485 1.01 2.485 0 4 C0.66 4 1.32 4 2 4 C2 8 2 8 0.64453125 9.4140625 C-2.80690114 11.69539307 -6.04067235 13.68022412 -10 15 C-10 14.34 -10 13.68 -10 13 C-10.99 13 -11.98 13 -13 13 C-9.0580583 8.11950075 -4.88049925 3.9419417 0 0 Z M-12 15 C-11.34 15.33 -10.68 15.66 -10 16 C-10.99 16 -11.98 16 -13 16 C-12.67 15.67 -12.34 15.34 -12 15 Z " fill="#0AA3AC" transform="translate(143,282)"/>
<path d="M0 0 C0.66 0.33 1.32 0.66 2 1 C0.19631085 3.29282519 -0.70076931 3.9497577 -3.62890625 4.44140625 C-5.08103516 4.50134766 -5.08103516 4.50134766 -6.5625 4.5625 C-10.78238663 4.56844954 -10.78238663 4.56844954 -14 7 C-13.236875 7.103125 -12.47375 7.20625 -11.6875 7.3125 C-8.82940576 8.04364039 -7.84257115 8.76951913 -6 11 C-7.32 12.32 -8.64 13.64 -10 15 C-10 13.02 -10 11.04 -10 9 C-12.97851562 9.04882812 -12.97851562 9.04882812 -15.95703125 9.09765625 C-18 9 -18 9 -21 8 C-20.09298316 4.86666911 -19.58407896 3.35693714 -16.75 1.625 C-13.50828635 0.8882469 -11.24179284 1.37923116 -8 2 C-5.85744207 1.61067144 -5.85744207 1.61067144 -4 1 C-3.01 1 -2.02 1 -1 1 C-0.67 0.67 -0.34 0.34 0 0 Z " fill="#0A72A1" transform="translate(320,218)"/>
<path d="M0 0 C0.99 0.33 1.98 0.66 3 1 C3 3.31 3 5.62 3 8 C3.66 8 4.32 8 5 8 C5.33 8.99 5.66 9.98 6 11 C4.35 12.65 2.7 14.3 1 16 C0.01 15.67 -0.98 15.34 -2 15 C-2.94921875 12.71484375 -2.94921875 12.71484375 -3.6875 9.9375 C-3.93886719 9.01839844 -4.19023437 8.09929687 -4.44921875 7.15234375 C-4.63097656 6.44207031 -4.81273437 5.73179687 -5 5 C-3.35 3.35 -1.7 1.7 0 0 Z " fill="#55F5BF" transform="translate(201,167)"/>
<path d="M0 0 C0.99 0.33 1.98 0.66 3 1 C-6.00727449 9.62398621 -15.63080127 18.30955165 -28.6875 18.25 C-29.82574219 18.25515625 -30.96398437 18.2603125 -32.13671875 18.265625 C-35 18 -35 18 -37 16 C-34 14 -34 14 -31 14 C-31 14.99 -31 15.98 -31 17 C-20.49156775 15.68399073 -13.13318868 12.38504942 -5.41015625 5.13671875 C-4 4 -4 4 -2 4 C-1.34 2.68 -0.68 1.36 0 0 Z " fill="#019CBF" transform="translate(223,179)"/>
<path d="M0 0 C0.66 0 1.32 0 2 0 C1.4140625 6.15234375 1.4140625 6.15234375 1 8 C0.01 8.495 0.01 8.495 -1 9 C-1.76756736 10.84501625 -1.76756736 10.84501625 -2.375 13.0625 C-3.36061357 16.21347671 -4.46060707 19.07985387 -6 22 C-8.1884314 26.17485375 -9.62531986 30.50104682 -11 35 C-11.66 34.67 -12.32 34.34 -13 34 C-10.87555401 26.18300191 -7.9836327 18.82105482 -4.8125 11.375 C-4.34908203 10.27542969 -3.88566406 9.17585937 -3.40820312 8.04296875 C-2.27669493 5.36001117 -1.14056098 2.67911856 0 0 Z " fill="#0DC8AA" transform="translate(202,133)"/>
<path d="M0 0 C-9.83394161 10.12317518 -9.83394161 10.12317518 -17 12 C-16.49396008 9.83125748 -16.00016187 8.00032373 -15 6 C-14.01 5.67 -13.02 5.34 -12 5 C-11.525625 4.360625 -11.05125 3.72125 -10.5625 3.0625 C-7.44465315 -1.05305785 -4.84593764 -1.34609379 0 0 Z " fill="#0D56A1" transform="translate(449,188)"/>
<path d="M0 0 C-0.33 0.66 -0.66 1.32 -1 2 C-2.71089793 2.50423397 -4.44549377 2.92930565 -6.1875 3.3125 C-11.37482021 4.6228387 -14.24218828 6.24218828 -18 10 C-18 9.01 -18 8.02 -18 7 C-18.66 6.67 -19.32 6.34 -20 6 C-19.34 6 -18.68 6 -18 6 C-18.33 5.01 -18.66 4.02 -19 3 C-13.24736889 -0.83508741 -6.68199149 -0.11884965 0 0 Z " fill="#1FD9F8" transform="translate(322,115)"/>
<path d="M0 0 C0 3.881481 -1.14692309 5.89810899 -3.5 8.9375 C-5.10342626 10.95529742 -5.10342626 10.95529742 -5.9375 13.4375 C-7 16 -7 16 -8.875 18.24609375 C-11.19180872 21.24857563 -12.56374225 24.14788202 -14.0625 27.625 C-17.03685502 34.52045435 -17.03685502 34.52045435 -20 37 C-19.04261446 30.96860653 -16.18604879 26.10664744 -13.375 20.75 C-12.86582031 19.75097656 -12.35664063 18.75195312 -11.83203125 17.72265625 C-8.46548164 11.26799346 -4.6833161 5.57379346 0 0 Z " fill="#7BEDE4" transform="translate(242,52)"/>
<path d="M0 0 C0.77923828 0.00451172 1.55847656 0.00902344 2.36132812 0.01367188 C4.26175268 0.02533092 6.16213706 0.04326123 8.0625 0.0625 C8.3925 0.7225 8.7225 1.3825 9.0625 2.0625 C7.40635343 2.44468767 5.73792976 2.77645102 4.0625 3.0625 C3.7325 2.7325 3.4025 2.4025 3.0625 2.0625 C-3.88608474 1.49526859 -9.22130033 3.25170022 -14.9375 7.0625 C-16.5875 6.0725 -18.2375 5.0825 -19.9375 4.0625 C-18.6175 3.7325 -17.2975 3.4025 -15.9375 3.0625 C-15.9375 2.4025 -15.9375 1.7425 -15.9375 1.0625 C-10.57260405 0.15766363 -5.43432543 -0.06053662 0 0 Z " fill="#088D92" transform="translate(119.9375,313.9375)"/>
<path d="M0 0 C0.2475 0.639375 0.495 1.27875 0.75 1.9375 C1.78826429 4.17549168 1.78826429 4.17549168 3.9375 4.5625 C4.9584375 4.7790625 4.9584375 4.7790625 6 5 C7.75 6.5625 7.75 6.5625 9 8 C3.25 13 3.25 13 1 13 C1 12.34 1 11.68 1 11 C0.34 11 -0.32 11 -1 11 C-1 8.69 -1 6.38 -1 4 C-1.66 3.67 -2.32 3.34 -3 3 C-2.01 2.01 -1.02 1.02 0 0 Z " fill="#80F7C2" transform="translate(205,164)"/>
<path d="M0 0 C0.66 0.66 1.32 1.32 2 2 C1.7578125 4.1640625 1.7578125 4.1640625 1.125 6.625 C0.92132813 7.44226563 0.71765625 8.25953125 0.5078125 9.1015625 C0.25644531 10.04128906 0.25644531 10.04128906 0 11 C-1.98567708 11.16276042 -3.97135417 11.32552083 -5.95703125 11.48828125 C-8.50456649 12.12638281 -9.35743924 12.97185482 -11 15 C-11.19155839 17.92852144 -11.23632576 20.64624909 -11.125 23.5625 C-10.89405786 31.78811572 -10.89405786 31.78811572 -12 34 C-9.525 33.505 -9.525 33.505 -7 33 C-8.3125 34.5 -8.3125 34.5 -10 36 C-10.99 36 -11.98 36 -13 36 C-13.11627503 32.41694008 -13.1872736 28.83436583 -13.25 25.25 C-13.28351563 24.23421875 -13.31703125 23.2184375 -13.3515625 22.171875 C-13.44999424 14.69106259 -13.44999424 14.69106259 -11.25 11.3125 C-7.63782524 9.20539806 -5.11751484 9.72549901 -1 10 C-1 7.36 -1 4.72 -1 2 C-2.65 2 -4.3 2 -6 2 C-6 1.67 -6 1.34 -6 1 C-3.125 0.375 -3.125 0.375 0 0 Z " fill="#0E638E" transform="translate(324,224)"/>
<path d="M0 0 C0.66 0.33 1.32 0.66 2 1 C-1.32465873 4.12255181 -4.16006088 6.66402435 -8.4375 8.375 C-13.32638591 10.60501813 -16.41065341 14.0750262 -20 18 C-21 16 -21 16 -20.25 13.25 C-16.8746727 8.37452723 -12.2128741 6.59553146 -7 4 C-5.63950098 3.19814837 -4.28410461 2.38747251 -2.9375 1.5625 C-1.968125 1.046875 -0.99875 0.53125 0 0 Z M-23 18 C-22.01 18.495 -22.01 18.495 -21 19 C-21.99 19.495 -21.99 19.495 -23 20 C-23 19.34 -23 18.68 -23 18 Z " fill="#0A3B90" transform="translate(487,163)"/>
<path d="M0 0 C-1.36983503 3.16115776 -1.9890638 3.9927092 -5 6 C-9.68387647 6.51750695 -14.43879688 6.17708468 -19 5 C-15.90131855 2.93421237 -13.65023694 2.25308642 -10.0625 1.375 C-9.02222656 1.11460938 -7.98195313 0.85421875 -6.91015625 0.5859375 C-4 0 -4 0 0 0 Z " fill="#105993" transform="translate(329,118)"/>
<path d="M0 0 C0.33 0.99 0.66 1.98 1 3 C0.28714844 2.84015625 -0.42570312 2.6803125 -1.16015625 2.515625 C-8.08980585 1.25742177 -14.99299512 0.88994403 -21 5 C-21.33 5.66 -21.66 6.32 -22 7 C-22.99 6.67 -23.98 6.34 -25 6 C-21.50912907 1.9957657 -19.35048061 0.37328935 -14 0 C-14 -0.66 -14 -1.32 -14 -2 C-9.02375846 -3.65874718 -4.5921962 -2.2960981 0 0 Z " fill="#0B3975" transform="translate(329,108)"/>
<path d="M0 0 C0.69738281 0.00451172 1.39476562 0.00902344 2.11328125 0.01367188 C3.82555803 0.0253998 5.53779033 0.04333347 7.25 0.0625 C6.92 0.7225 6.59 1.3825 6.25 2.0625 C4.27 2.0625 2.29 2.0625 0.25 2.0625 C0.25 2.7225 0.25 3.3825 0.25 4.0625 C-2 5.1875 -2 5.1875 -4.75 6.0625 C-6.09977849 5.42979133 -7.43352881 4.76187532 -8.75 4.0625 C-11.43993053 4.36628052 -11.43993053 4.36628052 -13.75 5.0625 C-13 3.125 -13 3.125 -11.75 1.0625 C-8.00384086 -0.40658201 -3.95965981 -0.04865367 0 0 Z " fill="#088C9D" transform="translate(171.75,306.9375)"/>
<path d="M0 0 C0.66 0.33 1.32 0.66 2 1 C0.37660195 2.70884005 -1.29319053 4.37446717 -3 6 C-3.66 6 -4.32 6 -5 6 C-5 6.66 -5 7.32 -5 8 C-9.32564205 9.58255197 -13.428721 10.45144652 -18 11 C-17.67 10.01 -17.34 9.02 -17 8 C-14.82421875 7.01171875 -14.82421875 7.01171875 -12 6 C-8.86555227 4.41064589 -5.75419001 2.78179918 -2.64453125 1.14453125 C-1.77183594 0.76683594 -0.89914062 0.38914063 0 0 Z " fill="#0E6CB6" transform="translate(459,178)"/>
<path d="M0 0 C-0.99 1.485 -0.99 1.485 -2 3 C-2.99 3 -3.98 3 -5 3 C-6.63581403 3.44083802 -8.26032026 3.9246306 -9.875 4.4375 C-13.23756126 5.50179691 -16.5436754 6.30873508 -20 7 C-21.299375 7.5259375 -21.299375 7.5259375 -22.625 8.0625 C-25 9 -25 9 -28 9 C-28 8.34 -28 7.68 -28 7 C-27.16597656 6.74605469 -26.33195312 6.49210937 -25.47265625 6.23046875 C-24.34730469 5.88628906 -23.22195312 5.54210937 -22.0625 5.1875 C-20.8765625 4.82527344 -19.690625 4.46304687 -18.46875 4.08984375 C-15.63958449 3.20095053 -12.85364938 2.24888736 -10.0625 1.25 C-6.61707797 0.07397956 -3.668283 -0.28217562 0 0 Z " fill="#087A7C" transform="translate(83,321)"/>
<path d="M0 0 C0.99 0.33 1.98 0.66 3 1 C1.29486266 2.70513734 -0.41123924 4.4089838 -2.125 6.10546875 C-3.25627742 7.24853031 -4.36761254 8.41256516 -5.4375 9.61328125 C-6.6875 11 -6.6875 11 -9 13 C-11.14453125 12.625 -11.14453125 12.625 -13 12 C-12.07347299 10.82460004 -11.13336613 9.65989423 -10.1875 8.5 C-9.40439453 7.52546875 -9.40439453 7.52546875 -8.60546875 6.53125 C-7 5 -7 5 -4 5 C-3.71125 4.360625 -3.4225 3.72125 -3.125 3.0625 C-2 1 -2 1 0 0 Z " fill="#077C99" transform="translate(220,295)"/>
<path d="M0 0 C0.66 0.33 1.32 0.66 2 1 C1.41992188 1.37511719 0.83984375 1.75023437 0.2421875 2.13671875 C-4.42252812 5.19264631 -8.79645604 8.33537193 -13 12 C-15 10 -15 10 -15.0625 8.0625 C-13.37625484 4.78920056 -10.27345117 4.20736759 -7 3 C-5.72719231 2.42098728 -4.45625887 1.83783168 -3.1875 1.25 C-2.135625 0.8375 -1.08375 0.425 0 0 Z " fill="#0782AA" transform="translate(270,277)"/>
<path d="M0 0 C0.33 0 0.66 0 1 0 C2.49002217 13.99556541 2.49002217 13.99556541 2 21 C1 22 1 22 -1.06640625 22.09765625 C-1.89011719 22.08605469 -2.71382812 22.07445312 -3.5625 22.0625 C-4.38878906 22.05347656 -5.21507812 22.04445313 -6.06640625 22.03515625 C-7.02353516 22.01775391 -7.02353516 22.01775391 -8 22 C-8 21.34 -8 20.68 -8 20 C-5.36 20 -2.72 20 0 20 C0 13.4 0 6.8 0 0 Z " fill="#356F92" transform="translate(245,240)"/>
<path d="M0 0 C0.99 0.33 1.98 0.66 3 1 C2.67 1.99 2.34 2.98 2 4 C1.34 4.28875 0.68 4.5775 0 4.875 C-2.29150599 5.8553382 -2.29150599 5.8553382 -2.75 8.625 C-2.8325 9.40875 -2.915 10.1925 -3 11 C-7.17737474 12.59138085 -10.53160785 13.21278058 -15 13 C-14.401875 12.731875 -13.80375 12.46375 -13.1875 12.1875 C-10.96966765 11.11763032 -10.96966765 11.11763032 -9.4375 9.4375 C-8 8 -8 8 -5 7 C-3.56051882 5.37117603 -3.56051882 5.37117603 -2.3125 3.4375 C-1.87550781 2.79683594 -1.43851562 2.15617188 -0.98828125 1.49609375 C-0.66214844 1.00238281 -0.33601563 0.50867188 0 0 Z " fill="#1393C2" transform="translate(409,188)"/>
<path d="M0 0 C0.99 0 1.98 0 3 0 C0.84618556 5.28663545 -3.42236838 8.77870367 -8 12 C-8.33 11.67 -8.66 11.34 -9 11 C-11.33944736 11.28730055 -13.6739143 11.61936779 -16 12 C-16 11.34 -16 10.68 -16 10 C-16.66 9.67 -17.32 9.34 -18 9 C-16.89591797 8.96132812 -16.89591797 8.96132812 -15.76953125 8.921875 C-9.566012 8.59276402 -9.566012 8.59276402 -3.9375 6.1875 C-2.15515637 4.17517655 -0.97938644 2.49298367 0 0 Z " fill="#0B3977" transform="translate(332,117)"/>
<path d="M0 0 C2.0625 0.4375 2.0625 0.4375 4 1 C-1.78119295 4.85412863 -8.17991496 5.1364017 -15 5 C-15.99 5.33 -16.98 5.66 -18 6 C-18.33 5.01 -18.66 4.02 -19 3 C-15.31784107 1.15892054 -10.75808226 1.584971 -6.67773438 1.39453125 C-3.03510546 1.53360713 -3.03510546 1.53360713 0 0 Z " fill="#09BBB1" transform="translate(107,306)"/>
<path d="M0 0 C-9.37010678 4.09942172 -17.97778078 4.23489576 -28 4 C-28 3.67 -28 3.34 -28 3 C-24.08559007 2.29921164 -20.168211 1.61668646 -16.25 0.9375 C-14.58324219 0.63875977 -14.58324219 0.63875977 -12.8828125 0.33398438 C-11.81289062 0.15029297 -10.74296875 -0.03339844 -9.640625 -0.22265625 C-8.16384277 -0.48187866 -8.16384277 -0.48187866 -6.65722656 -0.74633789 C-4.09865957 -0.99058184 -2.41709608 -0.80486291 0 0 Z " fill="#06C9C3" transform="translate(157,306)"/>
<path d="M0 0 C2 1 2 1 2 1 Z M0 2 C-1.15625 3.49609375 -1.15625 3.49609375 -3 5 C-5.59375 5.22265625 -5.59375 5.22265625 -8.5 5.0625 C-13.03020046 4.77906703 -13.03020046 4.77906703 -17 7 C-20.6875 6.125 -20.6875 6.125 -24 5 C-24 4.67 -24 4.34 -24 4 C-20.37640521 3.46905569 -16.75096814 2.95196512 -13.125 2.4375 C-12.09246094 2.28603516 -11.05992187 2.13457031 -9.99609375 1.97851562 C-9.00996094 1.83994141 -8.02382813 1.70136719 -7.0078125 1.55859375 C-6.09660645 1.42767334 -5.18540039 1.29675293 -4.24658203 1.16186523 C-2 1 -2 1 0 2 Z " fill="#0C8CB1" transform="translate(367,215)"/>
<path d="M0 0 C0.33 0.99 0.66 1.98 1 3 C1.66 3.66 2.32 4.32 3 5 C2.54625 5.556875 2.0925 6.11375 1.625 6.6875 C-0.10147793 8.9428546 -0.10147793 8.9428546 -1 11.625 C-2 14 -2 14 -5 16 C-5.99 15.67 -6.98 15.34 -8 15 C-7.195625 14.175 -6.39125 13.35 -5.5625 12.5 C-2.43462394 8.81859531 -2.39975935 5.71716035 -2 1 C-1.34 0.67 -0.68 0.34 0 0 Z " fill="#117EBD" transform="translate(422,178)"/>
<path d="M0 0 C1.50433594 0.01353516 1.50433594 0.01353516 3.0390625 0.02734375 C3.80992187 0.03894531 4.58078125 0.05054688 5.375 0.0625 C2.62041511 2.9470948 0.16074457 4.65212457 -3.625 6.0625 C-7 5.25 -7 5.25 -9.625 4.0625 C-8.965 3.7325 -8.305 3.4025 -7.625 3.0625 C-7.625 2.4025 -7.625 1.7425 -7.625 1.0625 C-4.98041621 -0.25979189 -2.94738699 -0.03427194 0 0 Z " fill="#097CA7" transform="translate(380.625,213.9375)"/>
<path d="M0 0 C2.31 0 4.62 0 7 0 C5.68 0.33 4.36 0.66 3 1 C3 1.66 3 2.32 3 3 C-1.39436211 3.85743651 -5.52572076 4.08948558 -10 4 C-10.33 4.66 -10.66 5.32 -11 6 C-13.31 5.67 -15.62 5.34 -18 5 C-13.5987703 2.72350188 -10.28028936 1.87905542 -5.3125 1.9375 C-4.31863281 1.94652344 -3.32476562 1.95554687 -2.30078125 1.96484375 C-1.16189453 1.98224609 -1.16189453 1.98224609 0 2 C0 1.34 0 0.68 0 0 Z " fill="#069B96" transform="translate(97,316)"/>
<path d="M0 0 C0.33 0.66 0.66 1.32 1 2 C-0.24493748 4.28974316 -1.52641528 6.44190034 -2.9375 8.625 C-3.32357422 9.23601562 -3.70964844 9.84703125 -4.10742188 10.4765625 C-5.06446326 11.9889242 -6.03132811 13.49506117 -7 15 C-7.66 14.67 -8.32 14.34 -9 14 C-9 8.35688807 -5.59695551 5.04657495 -2 1 C-1.34 0.67 -0.68 0.34 0 0 Z " fill="#56F8DA" transform="translate(228,98)"/>
<path d="M0 0 C4.875 0.875 4.875 0.875 6 2 C6 3.65 6 5.3 6 7 C1.71 7 -2.58 7 -7 7 C-7 6.67 -7 6.34 -7 6 C-6.05125 5.71125 -5.1025 5.4225 -4.125 5.125 C-0.94788422 4.23174891 -0.94788422 4.23174891 1 2 C0.67 1.34 0.34 0.68 0 0 Z " fill="#19597D" transform="translate(343,233)"/>
<path d="M0 0 C0.763125 0.20625 1.52625 0.4125 2.3125 0.625 C1.3125 3.625 1.3125 3.625 -0.97265625 5.01171875 C-1.88917969 5.44097656 -2.80570313 5.87023437 -3.75 6.3125 C-4.66910156 6.74949219 -5.58820313 7.18648437 -6.53515625 7.63671875 C-7.24542969 7.96285156 -7.95570313 8.28898438 -8.6875 8.625 C-7.9375 3.875 -7.9375 3.875 -5.6875 1.625 C-2.6875 -0.375 -2.6875 -0.375 0 0 Z " fill="#158196" transform="translate(233.6875,142.375)"/>
<path d="M0 0 C0 0.33 0 0.66 0 1 C-7.26 1.66 -14.52 2.32 -22 3 C-22 2.01 -22 1.02 -22 0 C-14.78621941 -1.64364621 -7.23192788 -1.56366008 0 0 Z " fill="#146BA0" transform="translate(331,113)"/>
<path d="M0 0 C-3.3 3.3 -6.6 6.6 -10 10 C-10.66 9.01 -11.32 8.02 -12 7 C-9.96698168 1.3075487 -5.80944083 -1.45236021 0 0 Z " fill="#074977" transform="translate(315,262)"/>
<path d="M0 0 C0.66 0.33 1.32 0.66 2 1 C-3.55255395 4.58229287 -9.31480554 8 -16 8 C-16.99 7.67 -17.98 7.34 -19 7 C-19 6.34 -19 5.68 -19 5 C-18.21496094 4.89042969 -17.42992187 4.78085937 -16.62109375 4.66796875 C-9.56565008 3.65119111 -9.56565008 3.65119111 -2.875 1.3125 C-1.451875 0.6628125 -1.451875 0.6628125 0 0 Z " fill="#07979F" transform="translate(156,309)"/>
<path d="M0 0 C0.66 0.33 1.32 0.66 2 1 C0.20681844 3.27176717 -0.69080145 3.94738037 -3.59375 4.44140625 C-4.5528125 4.48136719 -5.511875 4.52132812 -6.5 4.5625 C-10.36123168 4.73376431 -11.69785653 4.79857102 -15 7 C-15.66 6.67 -16.32 6.34 -17 6 C-17 5.01 -17 4.02 -17 3 C-16.39671875 2.93941406 -15.7934375 2.87882813 -15.171875 2.81640625 C-13.97304688 2.69072266 -13.97304688 2.69072266 -12.75 2.5625 C-11.96109375 2.48128906 -11.1721875 2.40007812 -10.359375 2.31640625 C-8.02508379 2.04935711 -8.02508379 2.04935711 -5.890625 1.46484375 C-4 1 -4 1 -1 1 C-0.67 0.67 -0.34 0.34 0 0 Z " fill="#1182AE" transform="translate(320,218)"/>
<path d="M0 0 C-0.33 0.99 -0.66 1.98 -1 3 C-1.5775 3.12375 -2.155 3.2475 -2.75 3.375 C-7.04323729 4.56756591 -9.52625281 8.37298165 -12.125 11.8125 C-12.74375 12.534375 -13.3625 13.25625 -14 14 C-14.99 14 -15.98 14 -17 14 C-17 13.34 -17 12.68 -17 12 C-16.34 12 -15.68 12 -15 12 C-15 11.34 -15 10.68 -15 10 C-5.28915663 0 -5.28915663 0 0 0 Z " fill="#0D51A3" transform="translate(469,174)"/>
<path d="M0 0 C2.97 0.33 5.94 0.66 9 1 C7.71034824 2.37562854 6.37310707 3.70766393 5 5 C4.34 5 3.68 5 3 5 C3 5.99 3 6.98 3 8 C2.01 7.67 1.02 7.34 0 7 C-0.99 7.495 -0.99 7.495 -2 8 C-1.67 7.4225 -1.34 6.845 -1 6.25 C0.27075898 3.80116138 0.27075898 3.80116138 0 0 Z " fill="#0B608C" transform="translate(302,260)"/>
<path d="M0 0 C0.66 0 1.32 0 2 0 C2 2.31 2 4.62 2 7 C4.31 7 6.62 7 9 7 C7.68 8.65 6.36 10.3 5 12 C4.01 11.67 3.02 11.34 2 11 C1.05078125 8.71484375 1.05078125 8.71484375 0.3125 5.9375 C0.06113281 5.01839844 -0.19023437 4.09929687 -0.44921875 3.15234375 C-0.63097656 2.44207031 -0.81273437 1.73179687 -1 1 C-0.67 0.67 -0.34 0.34 0 0 Z " fill="#33F0C5" transform="translate(197,171)"/>
<path d="M0 0 C0.33 0.99 0.66 1.98 1 3 C-2.91294315 5.91552627 -6.32894208 8.44298069 -11 10 C-7.55384615 5.2 -7.55384615 5.2 -4.75 4.1875 C-3.88375 4.0946875 -3.88375 4.0946875 -3 4 C-3 3.34 -3 2.68 -3 2 C-2.01 1.34 -1.02 0.68 0 0 Z M-13 10 C-12.34 10.33 -11.68 10.66 -11 11 C-11.99 11 -12.98 11 -14 11 C-13.67 10.67 -13.34 10.34 -13 10 Z " fill="#0AB8B9" transform="translate(144,287)"/>
<path d="M0 0 C-0.95117134 1.1725131 -1.91117009 2.33787015 -2.875 3.5 C-3.40867187 4.1496875 -3.94234375 4.799375 -4.4921875 5.46875 C-4.98976563 5.9740625 -5.48734375 6.479375 -6 7 C-6.66 7 -7.32 7 -8 7 C-8.25 4.6875 -8.25 4.6875 -8 2 C-5.17904206 -1.02245494 -3.81217262 -1.16927984 0 0 Z " fill="#185C82" transform="translate(342,246)"/>
<path d="M0 0 C0.99 0.33 1.98 0.66 3 1 C1.5359872 3.84381248 0.02924807 6.51980792 -2 9 C-5.3125 10 -5.3125 10 -8 10 C-8 9.01 -8 8.02 -8 7 C-5 5 -5 5 -1 5 C-0.67 3.35 -0.34 1.7 0 0 Z " fill="#147DB7" transform="translate(406,187)"/>
<path d="M0 0 C1.14548728 3.43646183 0.92766609 3.79743819 -0.546875 6.90625 C-0.8975 7.65003906 -1.248125 8.39382812 -1.609375 9.16015625 C-1.98578125 9.93230469 -2.3621875 10.70445313 -2.75 11.5 C-3.1109375 12.27214844 -3.471875 13.04429688 -3.84375 13.83984375 C-5.56858499 17.44574879 -7.02232416 20.27064067 -10 23 C-9.42022443 19.52401836 -8.53478895 16.70895302 -6.93359375 13.57421875 C-6.53076172 12.77822266 -6.12792969 11.98222656 -5.71289062 11.16210938 C-5.29201172 10.34548828 -4.87113281 9.52886719 -4.4375 8.6875 C-4.01275391 7.85154297 -3.58800781 7.01558594 -3.15039062 6.15429688 C-2.1056521 4.10003574 -1.05540238 2.04879708 0 0 Z " fill="#87DBD6" transform="translate(232,66)"/>
<path d="M0 0 C-4.41880243 2.94586829 -6.67767339 3.0985616 -12 3 C-12 3.66 -12 4.32 -12 5 C-14.31 5 -16.62 5 -19 5 C-14.26935643 0.26935643 -6.41128823 -0.1885673 0 0 Z " fill="#05B3A9" transform="translate(109,313)"/>
<path d="M0 0 C0.99 0 1.98 0 3 0 C3 0.66 3 1.32 3 2 C3.7425 1.649375 4.485 1.29875 5.25 0.9375 C8.1322726 -0.04509293 9.21176345 -0.0326802 12 1 C8.59568053 3.26954631 6.83475798 3.36549949 2.8125 3.625 C1.72582031 3.69976562 0.63914062 3.77453125 -0.48046875 3.8515625 C-1.31191406 3.90054688 -2.14335937 3.94953125 -3 4 C-1.6875 2 -1.6875 2 0 0 Z " fill="#0FA4BF" transform="translate(356,214)"/>
<path d="M0 0 C2 1 2 1 2 1 Z M-2 1 C-1.34 1.33 -0.68 1.66 0 2 C-6.07439825 8.70459519 -6.07439825 8.70459519 -9.9375 9.9375 C-10.9584375 9.9684375 -10.9584375 9.9684375 -12 10 C-10.88949074 6.77952314 -10.07599671 6.04116489 -7 4.375 C-5.515 3.694375 -5.515 3.694375 -4 3 C-3.34 2.34 -2.68 1.68 -2 1 Z " fill="#0A6195" transform="translate(398,210)"/>
<path d="M0 0 C-0.66 0 -1.32 0 -2 0 C-2 0.66 -2 1.32 -2 2 C-7.24385089 3.7479503 -11.47322267 4.19392201 -17 4 C-14.22246623 2.55441992 -11.45460092 1.34964587 -8.5 0.3125 C-7.7471875 0.04050781 -6.994375 -0.23148438 -6.21875 -0.51171875 C-3.76402507 -1.0519311 -2.35576662 -0.79774824 0 0 Z " fill="#0C9FBE" transform="translate(394,208)"/>
<path d="M0 0 C0 0.66 0 1.32 0 2 C-1.4317616 2.69937202 -2.87067032 3.38412718 -4.3125 4.0625 C-5.51326172 4.63677734 -5.51326172 4.63677734 -6.73828125 5.22265625 C-9 6 -9 6 -12 5 C-8.27251268 0.72029233 -5.55962108 0 0 0 Z " fill="#16C4F2" transform="translate(318,118)"/>
<path d="M0 0 C0.99 0.33 1.98 0.66 3 1 C2.34 1.66 1.68 2.32 1 3 C0.01 2.67 -0.98 2.34 -2 2 C-1.34 1.34 -0.68 0.68 0 0 Z M-7 6 C-6.34 6.33 -5.68 6.66 -5 7 C-5.75 8.9375 -5.75 8.9375 -7 11 C-9.125 11.75 -9.125 11.75 -11 12 C-9.68 10.02 -8.36 8.04 -7 6 Z " fill="#0CB2BB" transform="translate(176,287)"/>
<path d="M0 0 C0 3.48123131 -0.41151304 3.86520636 -2.75 6.25 C-3.26046875 6.79140625 -3.7709375 7.3328125 -4.296875 7.890625 C-6 9 -6 9 -8.203125 8.671875 C-8.79609375 8.45015625 -9.3890625 8.2284375 -10 8 C-7.92141021 5.81907964 -5.78143382 4.03609531 -3.3125 2.3125 C-2.68988281 1.87550781 -2.06726563 1.43851562 -1.42578125 0.98828125 C-0.95527344 0.66214844 -0.48476563 0.33601563 0 0 Z " fill="#075B8C" transform="translate(291,268)"/>
<path d="M0 0 C0 0.99 0 1.98 0 3 C2.64 3 5.28 3 8 3 C8 3.33 8 3.66 8 4 C6.04196493 4.05389087 4.08351091 4.09274217 2.125 4.125 C1.03445312 4.14820313 -0.05609375 4.17140625 -1.1796875 4.1953125 C-4 4 -4 4 -6 2 C-3 0 -3 0 0 0 Z " fill="#02B0CE" transform="translate(192,193)"/>
<path d="M0 0 C0.66 0.33 1.32 0.66 2 1 C-5.29840547 8.48291572 -5.29840547 8.48291572 -9 11 C-9.66 10.67 -10.32 10.34 -11 10 C-7.50640535 6.40365256 -3.88901869 3.16548033 0 0 Z " fill="#0A3881" transform="translate(461,184)"/>
<path d="M0 0 C-0.33 0.99 -0.66 1.98 -1 3 C-4.01490557 4.00496852 -6.04181692 4.10335303 -9.1875 4.0625 C-10.53908203 4.04896484 -10.53908203 4.04896484 -11.91796875 4.03515625 C-12.60503906 4.02355469 -13.29210937 4.01195313 -14 4 C-11.17991324 2.11994216 -9.65676336 1.54324907 -6.4375 0.875 C-5.65246094 0.70742187 -4.86742187 0.53984375 -4.05859375 0.3671875 C-2 0 -2 0 0 0 Z " fill="#126CA5" transform="translate(327,118)"/>
<path d="M0 0 C-2.15634036 2.15634036 -4.37098712 3.47793991 -7 5 C-8.68496298 4.03114628 -10.35178756 3.03013277 -12 2 C-12 1.67 -12 1.34 -12 1 C-7.93631321 0.22596442 -4.13574827 -0.0984702 0 0 Z " fill="#088488" transform="translate(112,316)"/>
<path d="M0 0 C6.27 0 12.54 0 19 0 C19.33 1.32 19.66 2.64 20 4 C19.34 3.67 18.68 3.34 18 3 C18 2.34 18 1.68 18 1 C15.39547729 1.14086602 12.79149803 1.28748464 10.1875 1.4375 C9.44951172 1.47681641 8.71152344 1.51613281 7.95117188 1.55664062 C4.76928658 1.74381035 2.03837622 1.98720793 -1 3 C-0.67 2.01 -0.34 1.02 0 0 Z " fill="#1C4963" transform="translate(164,249)"/>
<path d="M0 0 C0.391875 0.45375 0.78375 0.9075 1.1875 1.375 C3.30832487 3.27642919 5.33042235 4.06204028 8 5 C8 5.66 8 6.32 8 7 C6.906875 6.79375 5.81375 6.5875 4.6875 6.375 C0.9161599 5.59653475 0.9161599 5.59653475 -2 8 C-1.47731534 5.23723823 -0.89130413 2.6739124 0 0 Z " fill="#0B6D89" transform="translate(230,137)"/>
<path d="M0 0 C-0.7734375 0.37125 -0.7734375 0.37125 -1.5625 0.75 C-3.6223193 1.80631759 -5.57720115 2.93886806 -7.5625 4.125 C-11 6 -11 6 -14 6 C-13 3 -13 3 -9.8125 1.3125 C-6.4652075 -0.01535157 -3.61508773 -0.26451861 0 0 Z " fill="#07A6B7" transform="translate(216,295)"/>
<path d="M0 0 C0.66 0.33 1.32 0.66 2 1 C0.93119777 2.34500955 -0.15562508 3.67571438 -1.25 5 C-1.85328125 5.7425 -2.4565625 6.485 -3.078125 7.25 C-5 9 -5 9 -9 9 C-9 8.34 -9 7.68 -9 7 C-7.02053408 5.63636792 -5.0180755 4.30581356 -3 3 C-1.20605554 1.37648891 -1.20605554 1.37648891 0 0 Z " fill="#0D85B4" transform="translate(351,207)"/>
<path d="M0 0 C-0.33 0.99 -0.66 1.98 -1 3 C-4.5625 4.6875 -4.5625 4.6875 -8 6 C-8.33 5.34 -8.66 4.68 -9 4 C-3.375 0 -3.375 0 0 0 Z M-11 6 C-10.34 6.33 -9.68 6.66 -9 7 C-10.32 7.33 -11.64 7.66 -13 8 C-12.34 7.34 -11.68 6.68 -11 6 Z " fill="#0D61A0" transform="translate(420,200)"/>
<path d="M0 0 C7.10431476 -0.35260386 12.52463506 -0.06108161 19 3 C19.66 3.66 20.32 4.32 21 5 C18.31445148 4.52607967 15.87376696 3.95302957 13.3125 3 C8.91572473 1.67267162 4.56541271 1.34285708 0 1 C0 0.67 0 0.34 0 0 Z " fill="#0E4680" transform="translate(314,109)"/>
<path d="M0 0 C0.99 0.33 1.98 0.66 3 1 C-1.67460782 5.55774263 -4.48277089 6.66290194 -11 7 C-7.85590394 4.33961103 -4.87486269 3.2916209 -1 2 C-0.67 1.34 -0.34 0.68 0 0 Z " fill="#0C7CAC" transform="translate(332,214)"/>
<path d="M0 0 C0.66 0.99 1.32 1.98 2 3 C1.3203125 5.69921875 1.3203125 5.69921875 0.125 8.6875 C-0.26429688 9.68136719 -0.65359375 10.67523438 -1.0546875 11.69921875 C-1.52261719 12.83810547 -1.52261719 12.83810547 -2 14 C-2.66 13.67 -3.32 13.34 -4 13 C-3.52140759 11.39566191 -3.04210442 9.79153584 -2.5625 8.1875 C-2.29566406 7.29417969 -2.02882812 6.40085938 -1.75390625 5.48046875 C-1.19612127 3.64526945 -0.60655425 1.81966274 0 0 Z " fill="#04B1B0" transform="translate(193,154)"/>
<path d="M0 0 C0.66 0.33 1.32 0.66 2 1 C-1.3 3.64 -4.6 6.28 -8 9 C-8.66 8.67 -9.32 8.34 -10 8 C-6.91367389 4.7373124 -4.06516496 1.97764782 0 0 Z " fill="#0D4B96" transform="translate(446,189)"/>
<path d="M0 0 C0.66 0.66 1.32 1.32 2 2 C1.67 2.99 1.34 3.98 1 5 C1.9590625 5.433125 1.9590625 5.433125 2.9375 5.875 C5 7 5 7 6 9 C2.9168649 7.80100302 -0.06279492 6.52299523 -3 5 C-1.125 1.125 -1.125 1.125 0 0 Z " fill="#ADF9CA" transform="translate(212,159)"/>
<path d="M0 0 C0.66 0 1.32 0 2 0 C1.4140625 6.15234375 1.4140625 6.15234375 1 8 C0.01 8.495 0.01 8.495 -1 9 C-1.66 9.99 -2.32 10.98 -3 12 C-2.14285714 3.42857143 -2.14285714 3.42857143 0 0 Z " fill="#27DFAB" transform="translate(202,133)"/>
<path d="M0 0 C-0.96885372 1.68496298 -1.96986723 3.35178756 -3 5 C-3.33 5 -3.66 5 -4 5 C-4 3.02 -4 1.04 -4 -1 C-6.64 -1 -9.28 -1 -12 -1 C-12 -1.33 -12 -1.66 -12 -2 C-6.93395388 -3.3268216 -4.47171108 -2.66173278 0 0 Z " fill="#43809C" transform="translate(314,228)"/>
<path d="M0 0 C2.79872437 2.52788007 4.45773019 4.20411134 5 8 C4.01 8.33 3.02 8.66 2 9 C2 8.34 2 7.68 2 7 C1.34 7 0.68 7 0 7 C0 4.69 0 2.38 0 0 Z " fill="#6AF7C0" transform="translate(204,168)"/>
<path d="M0 0 C0.33 1.32 0.66 2.64 1 4 C-3.30769231 7.93846154 -3.30769231 7.93846154 -6.8125 8.25 C-7.534375 8.1675 -8.25625 8.085 -9 8 C-7.48065294 4.96130589 -5.01995228 4.35589694 -2 3 C-1.34 3 -0.68 3 0 3 C0 2.01 0 1.02 0 0 Z " fill="#077AA5" transform="translate(301,259)"/>
<path d="M0 0 C0.66 0.33 1.32 0.66 2 1 C1.67 2.32 1.34 3.64 1 5 C-1.475 4.01 -1.475 4.01 -4 3 C-2 1 -2 1 0 0 Z " fill="#0B4D85" transform="translate(409,211)"/>
<path d="M0 0 C-1.49097658 3.7952131 -3.75700849 5.61042731 -7 8 C-6.65930765 4.84859577 -6.41923159 3.39218439 -4.0625 1.1875 C-2 0 -2 0 0 0 Z " fill="#0B3D77" transform="translate(433,205)"/>
<path d="M0 0 C0.66 0.33 1.32 0.66 2 1 C-0.97 3.475 -0.97 3.475 -4 6 C-4.66 5.34 -5.32 4.68 -6 4 C-4.02 2.68 -2.04 1.36 0 0 Z " fill="#0778A1" transform="translate(261,283)"/>
<path d="M0 0 C0.99 0.33 1.98 0.66 3 1 C2.67 2.98 2.34 4.96 2 7 C2.66 7.33 3.32 7.66 4 8 C3.01 8.33 2.02 8.66 1 9 C0 8 0 8 -0.09765625 6.15234375 C-0.06510417 4.1015625 -0.03255208 2.05078125 0 0 Z " fill="#38728D" transform="translate(328,228)"/>
<path d="M0 0 C0.66 0.66 1.32 1.32 2 2 C1.75 5.5625 1.75 5.5625 1 9 C0.01 9.495 0.01 9.495 -1 10 C-1 7.36 -1 4.72 -1 2 C-2.65 2 -4.3 2 -6 2 C-6 1.67 -6 1.34 -6 1 C-3.125 0.375 -3.125 0.375 0 0 Z " fill="#2B7696" transform="translate(324,224)"/>
<path d="M0 0 C0.99 0.66 1.98 1.32 3 2 C-0.3 3.32 -3.6 4.64 -7 6 C-5 2 -5 2 -2.5625 0.625 C-1.716875 0.41875 -0.87125 0.2125 0 0 Z " fill="#0C68A1" transform="translate(402,206)"/>
<path d="M0 0 C0.33 1.32 0.66 2.64 1 4 C-0.8125 5.5625 -0.8125 5.5625 -3 7 C-3.99 6.67 -4.98 6.34 -6 6 C-4.02 4.02 -2.04 2.04 0 0 Z " fill="#0F8DC3" transform="translate(420,187)"/>
<path d="M0 0 C0.99 0.33 1.98 0.66 3 1 C-0.465 3.97 -0.465 3.97 -4 7 C-4.66 6.67 -5.32 6.34 -6 6 C-5.38125 5.7525 -4.7625 5.505 -4.125 5.25 C-1.64931313 3.79371361 -1.04874998 2.62187494 0 0 Z " fill="#02A4C7" transform="translate(223,179)"/>
<path d="M0 0 C0.66 0.33 1.32 0.66 2 1 C2.625 4.0625 2.625 4.0625 3 7 C2.01 7.66 1.02 8.32 0 9 C-1.125 3.375 -1.125 3.375 0 0 Z " fill="#07B2BF" transform="translate(187,171)"/>
<path d="M0 0 C0.66 0 1.32 0 2 0 C2.33 1.32 2.66 2.64 3 4 C1.68 4.33 0.36 4.66 -1 5 C-1 1 -1 1 0 0 Z " fill="#194366" transform="translate(347,257)"/>
<path d="M0 0 C0.66 0.33 1.32 0.66 2 1 C-1.465 3.97 -1.465 3.97 -5 7 C-5.66 6.67 -6.32 6.34 -7 6 C-3.375 1.125 -3.375 1.125 0 0 Z " fill="#0A3387" transform="translate(487,163)"/>
<path d="M0 0 C0.66 0 1.32 0 2 0 C0.25 5.75 0.25 5.75 -2 8 C-2.33 7.34 -2.66 6.68 -3 6 C-1.44444444 1.44444444 -1.44444444 1.44444444 0 0 Z " fill="#0EDEDF" transform="translate(236,120)"/>
<path d="M0 0 C1.32 0 2.64 0 4 0 C4 1.32 4 2.64 4 4 C2.68 4 1.36 4 0 4 C-0.33 3.01 -0.66 2.02 -1 1 C-0.67 0.67 -0.34 0.34 0 0 Z " fill="#2FEFFD" transform="translate(304,117)"/>
<path d="M0 0 C1 3 1 3 -0.3125 6.625 C-2 10 -2 10 -4 11 C-3.39301257 6.87248551 -1.96189209 3.6678852 0 0 Z " fill="#7DDACE" transform="translate(226,78)"/>
<path d="M0 0 C0.66 0.33 1.32 0.66 2 1 C1.67 2.98 1.34 4.96 1 7 C0.34 7 -0.32 7 -1 7 C-1 5.68 -1 4.36 -1 3 C-1.66 2.67 -2.32 2.34 -3 2 C-2.01 1.34 -1.02 0.68 0 0 Z " fill="#3BECED" transform="translate(247,48)"/>
</svg>